<svg width="16" height="12" viewBox="0 0 16 12" fill="none" xmlns="http://www.w3.org/2000/svg">
<path fill-rule="evenodd" clip-rule="evenodd" d="M15.5 6C15.5 6.34518 15.2202 6.625 14.875 6.625H1.125C0.779822 6.625 0.5 6.34518 0.5 6C0.5 5.65482 0.779822 5.375 1.125 5.375H14.875C15.2202 5.375 15.5 5.65482 15.5 6V6ZM1.125 1.625H14.875C15.2202 1.625 15.5 1.34518 15.5 1C15.5 0.654822 15.2202 0.375 14.875 0.375H1.125C0.779822 0.375 0.5 0.654822 0.5 1C0.5 1.34518 0.779822 1.625 1.125 1.625V1.625ZM14.875 10.375H1.125C0.779822 10.375 0.5 10.6548 0.5 11C0.5 11.3452 0.779822 11.625 1.125 11.625H14.875C15.2202 11.625 15.5 11.3452 15.5 11C15.5 10.6548 15.2202 10.375 14.875 10.375V10.375Z" fill="#171412"/>
</svg>
