<svg width="24" height="16" viewBox="0 0 24 16" fill="none" xmlns="http://www.w3.org/2000/svg">
<path fill-rule="evenodd" clip-rule="evenodd" d="M23.1956 5.96875L21.8831 2.6875C21.6553 2.11944 21.1039 1.74789 20.4919 1.75H17.25V1C17.25 0.585786 16.9142 0.25 16.5 0.25H2.25C1.42157 0.25 0.75 0.921573 0.75 1.75V12.25C0.75 13.0784 1.42157 13.75 2.25 13.75H3.84375C4.18363 15.0774 5.37974 16.0059 6.75 16.0059C8.12026 16.0059 9.31637 15.0774 9.65625 13.75H14.3438C14.6836 15.0774 15.8797 16.0059 17.25 16.0059C18.6203 16.0059 19.8164 15.0774 20.1562 13.75H21.75C22.5784 13.75 23.25 13.0784 23.25 12.25V6.25C23.2503 6.15361 23.2318 6.05809 23.1956 5.96875ZM17.25 3.25H20.4919L21.3919 5.5H17.25V3.25ZM2.25 1.75H15.75V7.75H2.25V1.75ZM6.75 14.5C5.92157 14.5 5.25 13.8284 5.25 13C5.25 12.1716 5.92157 11.5 6.75 11.5C7.57843 11.5 8.25 12.1716 8.25 13C8.25 13.8284 7.57843 14.5 6.75 14.5ZM14.3438 12.25H9.65625C9.31637 10.9226 8.12026 9.99412 6.75 9.99412C5.37974 9.99412 4.18363 10.9226 3.84375 12.25H2.25V9.25H15.75V10.4041C15.0534 10.8067 14.547 11.4715 14.3438 12.25ZM17.25 14.5C16.4216 14.5 15.75 13.8284 15.75 13C15.75 12.1716 16.4216 11.5 17.25 11.5C18.0784 11.5 18.75 12.1716 18.75 13C18.75 13.8284 18.0784 14.5 17.25 14.5ZM21.75 12.25H20.1562C19.8124 10.9261 18.6179 10.0013 17.25 10V7H21.75V12.25Z" fill="#171212"/>
</svg>
