<svg width="18" height="16" viewBox="0 0 18 16" fill="none" xmlns="http://www.w3.org/2000/svg">
<path fill-rule="evenodd" clip-rule="evenodd" d="M12.9062 0.5C11.293 0.5 9.88047 1.19375 9 2.36641C8.11953 1.19375 6.70703 0.5 5.09375 0.5C2.41987 0.503014 0.253014 2.66987 0.25 5.34375C0.25 10.8125 8.35859 15.2391 8.70391 15.4219C8.88878 15.5213 9.11122 15.5213 9.29609 15.4219C9.64141 15.2391 17.75 10.8125 17.75 5.34375C17.747 2.66987 15.5801 0.503014 12.9062 0.5V0.5ZM9 14.1562C7.57344 13.325 1.5 9.53828 1.5 5.34375C1.50258 3.36005 3.11005 1.75258 5.09375 1.75C6.61328 1.75 7.88906 2.55938 8.42188 3.85938C8.51818 4.09382 8.74654 4.2469 9 4.2469C9.25346 4.2469 9.48182 4.09382 9.57812 3.85938C10.1109 2.55703 11.3867 1.75 12.9062 1.75C14.89 1.75258 16.4974 3.36005 16.5 5.34375C16.5 9.53203 10.425 13.3242 9 14.1562V14.1562Z" fill="#171412"/>
</svg>
