<svg width="400" height="400" viewBox="0 0 400 400" fill="none" xmlns="http://www.w3.org/2000/svg">
<path d="M43.4942 128.437C41.0834 132.428 38.8941 136.587 36.959 140.933C21.3842 175.913 24.5817 209.135 33.5559 244.264C42.8246 280.545 60.3551 319.477 90.8446 342.84C98.0218 348.339 106.125 352.863 115.059 355.144C148.709 363.733 190.486 350.618 232.748 357.658C275.009 364.699 318.365 356.037 342.968 316.507C353.38 299.779 359.882 282.047 363.777 263.082C368.572 239.732 379.23 216.127 379.743 191.815C380.281 166.261 370.175 137.977 353.552 118.844C334.586 97.0154 303.971 94.5635 278.289 83.8504C258.043 75.4047 240.483 61.7654 220.011 53.8257C188.646 41.6616 148.371 41.2006 118.938 60.4863C90.3865 79.194 61.058 99.3605 43.4942 128.437Z" fill="#E82933"/>
<path opacity="0.7" d="M43.4942 128.437C41.0834 132.428 38.8941 136.587 36.959 140.933C21.3842 175.913 24.5817 209.135 33.5559 244.264C42.8246 280.545 60.3551 319.477 90.8446 342.84C98.0218 348.339 106.125 352.863 115.059 355.144C148.709 363.733 190.486 350.618 232.748 357.658C275.009 364.699 318.365 356.037 342.968 316.507C353.38 299.779 359.882 282.047 363.777 263.082C368.572 239.732 379.23 216.127 379.743 191.815C380.281 166.261 370.175 137.977 353.552 118.844C334.586 97.0154 303.971 94.5635 278.289 83.8504C258.043 75.4047 240.483 61.7654 220.011 53.8257C188.646 41.6616 148.371 41.2006 118.938 60.4863C90.3865 79.194 61.058 99.3605 43.4942 128.437Z" fill="white"/>
<path d="M237.42 302.249C218.304 298.04 198.721 297.534 179.618 301.342C176.374 301.988 173.099 302.764 169.874 303.693C147.299 310.197 134.596 319.53 130.636 330.461C126.675 341.392 130.053 360.318 141.231 369.449C152.409 378.58 185.865 388.2 219.462 386.388C253.06 384.576 275.666 363.47 281.12 348.678C286.574 333.885 282.81 319.416 272.263 312.803C266.488 309.182 250.609 305.154 237.42 302.249Z" fill="#E82933" stroke="#263238" stroke-miterlimit="10"/>
<path d="M282.356 326.452C280.638 320.7 277.191 315.893 272.263 312.803C266.488 309.182 250.609 305.154 237.42 302.249C218.304 298.04 198.721 297.534 179.618 301.342C176.374 301.988 173.099 302.764 169.874 303.693C147.299 310.197 134.596 319.53 130.635 330.461C130.635 330.461 131.664 347.556 147.296 358.858C162.928 370.161 210.468 374.138 242.782 362.285C272.711 351.306 280.709 336.258 282.356 326.452Z" fill="white" stroke="#263238" stroke-miterlimit="10"/>
<path d="M225.038 380.583C225.077 381.702 223.093 382.68 220.606 382.767C218.12 382.854 216.072 382.018 216.033 380.899C215.994 379.78 217.978 378.802 220.464 378.715C222.951 378.628 224.999 379.464 225.038 380.583Z" fill="white"/>
<path d="M249.502 371.161C249.541 372.28 247.859 373.247 245.746 373.321C243.632 373.395 241.887 372.548 241.848 371.429C241.808 370.31 243.49 369.343 245.604 369.269C247.717 369.195 249.463 370.042 249.502 371.161Z" fill="white"/>
<path d="M189.769 377.536C189.795 378.282 188.405 378.936 186.664 378.997C184.924 379.058 183.491 378.503 183.465 377.757C183.439 377.011 184.829 376.357 186.57 376.296C188.31 376.235 189.743 376.79 189.769 377.536Z" fill="white"/>
<path d="M211.286 374.078C211.321 375.072 209.736 375.935 207.747 376.005C205.758 376.075 204.117 375.325 204.082 374.33C204.047 373.335 205.632 372.473 207.621 372.403C209.61 372.333 211.251 373.083 211.286 374.078Z" fill="white"/>
<path d="M235.757 377.728C235.783 378.474 234.696 379.118 233.328 379.166C231.96 379.214 230.83 378.648 230.804 377.902C230.778 377.156 231.866 376.512 233.233 376.464C234.601 376.416 235.731 376.982 235.757 377.728Z" fill="white"/>
<path d="M261.726 363.015C262.178 363.902 263.982 363.888 265.755 362.985C267.529 362.081 268.6 360.629 268.148 359.743C267.697 358.856 265.893 358.87 264.119 359.773C262.345 360.677 261.274 362.128 261.726 363.015Z" fill="white"/>
<path d="M140.754 363.729C140.231 364.576 141.18 366.11 142.874 367.155C144.568 368.201 146.365 368.362 146.888 367.515C147.41 366.668 146.461 365.134 144.767 364.088C143.073 363.043 141.276 362.882 140.754 363.729Z" fill="white"/>
<path d="M168.213 374.028C168.115 374.516 168.828 375.07 169.804 375.264C170.78 375.459 171.65 375.221 171.747 374.733C171.845 374.245 171.132 373.692 170.156 373.497C169.18 373.302 168.31 373.54 168.213 374.028Z" fill="white"/>
<path d="M154.642 370.214C154.544 370.702 155.257 371.255 156.233 371.45C157.209 371.645 158.079 371.407 158.176 370.919C158.274 370.431 157.561 369.877 156.585 369.683C155.609 369.488 154.739 369.726 154.642 370.214Z" fill="white"/>
<path d="M228.834 370.38C228.737 370.868 229.449 371.421 230.425 371.616C231.401 371.811 232.271 371.573 232.369 371.085C232.466 370.597 231.754 370.044 230.778 369.849C229.802 369.654 228.932 369.892 228.834 370.38Z" fill="white"/>
<path d="M270.897 350.303C270.799 350.791 271.512 351.344 272.488 351.539C273.464 351.734 274.334 351.496 274.431 351.008C274.528 350.52 273.816 349.966 272.84 349.772C271.864 349.577 270.994 349.815 270.897 350.303Z" fill="white"/>
<path d="M248.086 336.402C248.136 336.06 248.169 335.669 248.187 335.25C248.342 331.632 246.529 328.215 243.483 326.258C239.166 323.486 232.314 319.433 225.861 317.093C215.371 313.289 207.815 313.361 207.815 313.361C207.815 313.361 172.762 309.162 166.758 313.502C166.758 313.502 164.556 320.324 164.947 321.705C165.338 323.087 165.52 329.005 181.34 337.04C197.16 345.075 203.249 349.551 217.224 349.04C231.199 348.529 236.09 346.341 240.602 344.031C245.114 341.72 247.731 338.799 248.086 336.402ZM239.124 334.347C237.253 336.254 224.206 341.668 224.206 341.668C213.386 342.779 212.628 342.535 189.973 331.038C167.319 319.542 174.998 319.09 174.998 319.09C185.672 315.84 212.521 318.228 212.521 318.228C212.521 318.228 217.95 319.562 227.058 323.757C236.166 327.952 240.995 332.44 239.124 334.347Z" fill="white" stroke="#263238" stroke-miterlimit="10"/>
<path d="M248.086 336.402C248.141 336.028 248.174 335.597 248.191 335.134C248.321 331.588 246.564 328.241 243.58 326.321C239.269 323.547 232.363 319.451 225.861 317.093C223.753 316.329 221.771 315.727 219.937 315.243C223.521 316.783 230.412 319.824 236.053 322.781C244.061 326.981 244.57 329.405 244.692 332.028C244.814 334.65 233.71 342.044 228.672 343.647C223.635 345.25 214.984 345.041 205.438 342.606C195.891 340.171 188.949 335.67 177.404 327.423C165.858 319.176 167.585 316.828 169.123 315.064C170.661 313.3 179.217 313.801 179.217 313.801L214.008 314.052L213.617 313.911C209.995 313.346 207.815 313.361 207.815 313.361C207.815 313.361 172.762 309.162 166.758 313.502C166.758 313.502 164.556 320.324 164.947 321.705C165.338 323.087 165.52 329.005 181.34 337.04C197.16 345.075 203.249 349.551 217.224 349.04C231.199 348.529 236.09 346.341 240.602 344.031C245.114 341.72 247.731 338.799 248.086 336.402Z" fill="#263238" stroke="#263238" stroke-miterlimit="10"/>
<path d="M179.217 313.801C179.217 313.801 176.196 313.927 173.718 315.765C171.241 317.603 173.47 319.453 173.47 319.453" stroke="#263238" stroke-miterlimit="10"/>
<path d="M239.124 334.347C239.124 334.347 242.317 333.196 242.752 331.264C243.187 329.332 241.008 326.745 237.926 324.62" stroke="#263238" stroke-miterlimit="10"/>
<path d="M168.034 318.744L166.231 324.33" stroke="#C9C9C9" stroke-miterlimit="10"/>
<path d="M170.903 322.429L169.38 326.645" stroke="#C9C9C9" stroke-miterlimit="10"/>
<path d="M180.15 328.985L178.044 333.499" stroke="#C9C9C9" stroke-miterlimit="10"/>
<path d="M193.228 337.751L191.653 341.625" stroke="#C9C9C9" stroke-miterlimit="10"/>
<path d="M221.436 344.907L219.804 347.952" stroke="#C9C9C9" stroke-miterlimit="10"/>
<path d="M235.118 345.265L236.969 339.531" stroke="#C9C9C9" stroke-miterlimit="10"/>
<path d="M241.38 335.923L239.112 343.957" stroke="#C9C9C9" stroke-miterlimit="10"/>
<path d="M245.843 332.656L243.091 341.183" stroke="#C9C9C9" stroke-miterlimit="10"/>
<path d="M278.188 296.055C278.239 295.713 278.271 295.322 278.289 294.903C278.445 291.285 276.632 287.868 273.585 285.911C269.268 283.139 262.417 279.086 255.963 276.746C245.473 272.942 237.917 273.014 237.917 273.014C237.917 273.014 202.864 268.815 196.86 273.154C196.86 273.154 194.658 279.976 195.049 281.358C195.44 282.74 195.623 288.658 211.443 296.693C227.263 304.728 233.351 309.204 247.326 308.693C261.301 308.181 266.192 305.994 270.704 303.683C275.216 301.373 277.833 298.452 278.188 296.055ZM269.226 294C267.355 295.907 254.309 301.321 254.309 301.321C243.488 302.432 242.73 302.187 220.076 290.691C197.422 279.194 205.1 278.743 205.1 278.743C215.774 275.493 242.624 277.881 242.624 277.881C242.624 277.881 248.052 279.214 257.16 283.41C266.268 287.605 271.097 292.093 269.226 294Z" fill="white" stroke="#263238" stroke-miterlimit="10"/>
<path d="M278.188 296.055C278.243 295.681 278.277 295.249 278.294 294.787C278.423 291.241 276.666 287.894 273.682 285.974C269.371 283.2 262.465 279.104 255.963 276.746C253.855 275.981 251.873 275.379 250.039 274.896C253.623 276.436 260.514 279.476 266.155 282.434C274.163 286.633 274.672 289.058 274.795 291.68C274.917 294.303 263.812 301.697 258.775 303.3C253.737 304.903 245.086 304.694 235.54 302.259C225.994 299.823 219.051 295.323 207.506 287.076C195.961 278.829 197.687 276.48 199.225 274.717C200.763 272.953 209.319 273.454 209.319 273.454L244.11 273.705L243.719 273.564C240.097 272.999 237.917 273.014 237.917 273.014C237.917 273.014 202.864 268.815 196.86 273.154C196.86 273.154 194.658 279.976 195.049 281.358C195.44 282.74 195.623 288.658 211.443 296.693C227.263 304.728 233.351 309.204 247.326 308.693C261.301 308.181 266.192 305.994 270.704 303.683C275.216 301.373 277.833 298.452 278.188 296.055Z" fill="#263238" stroke="#263238" stroke-miterlimit="10"/>
<path d="M203.572 279.106C203.572 279.106 201.344 277.256 203.821 275.418C206.298 273.58 209.319 273.454 209.319 273.454" stroke="#263238" stroke-miterlimit="10"/>
<path d="M269.226 294C269.226 294 272.419 292.849 272.854 290.917C273.289 288.985 271.11 286.398 268.028 284.273" stroke="#263238" stroke-miterlimit="10"/>
<path d="M198.137 278.396L196.334 283.983" stroke="#C9C9C9" stroke-miterlimit="10"/>
<path d="M201.005 282.082L199.482 286.298" stroke="#C9C9C9" stroke-miterlimit="10"/>
<path d="M210.252 288.638L208.146 293.152" stroke="#C9C9C9" stroke-miterlimit="10"/>
<path d="M223.331 297.404L221.756 301.278" stroke="#C9C9C9" stroke-miterlimit="10"/>
<path d="M251.538 304.56L249.906 307.604" stroke="#C9C9C9" stroke-miterlimit="10"/>
<path d="M267.071 299.184L265.221 304.918" stroke="#C9C9C9" stroke-miterlimit="10"/>
<path d="M271.482 295.576L269.214 303.609" stroke="#C9C9C9" stroke-miterlimit="10"/>
<path d="M275.945 292.309L273.193 300.836" stroke="#C9C9C9" stroke-miterlimit="10"/>
<path d="M207.756 306.023C207.699 305.682 207.609 305.3 207.498 304.895C206.535 301.405 203.76 298.71 200.259 297.783C195.3 296.471 187.535 294.719 180.674 294.474C169.523 294.075 162.354 296.465 162.354 296.465C162.354 296.465 127.706 303.235 123.325 309.209C123.325 309.209 123.325 316.378 124.122 317.573C124.918 318.767 126.909 324.343 144.433 327.131C161.956 329.918 169.125 332.308 182.267 327.529C195.41 322.75 199.392 319.166 202.976 315.581C206.561 311.997 208.154 308.413 207.756 306.023ZM198.596 306.82C197.401 309.209 186.648 318.369 186.648 318.369C176.692 322.75 175.895 322.75 150.805 318.767C125.715 314.785 132.883 311.997 132.883 311.997C142.043 305.625 168.328 299.651 168.328 299.651C168.328 299.651 173.904 299.253 183.86 300.447C193.817 301.642 199.79 304.43 198.596 306.82Z" fill="white" stroke="#263238" stroke-miterlimit="10"/>
<path d="M207.756 306.023C207.693 305.65 207.592 305.229 207.466 304.783C206.5 301.369 203.8 298.723 200.371 297.813C195.416 296.498 187.586 294.72 180.674 294.474C178.433 294.394 176.362 294.429 174.469 294.533C178.352 294.898 185.844 295.674 192.12 296.757C201.032 298.293 202.261 300.444 203.182 302.902C204.104 305.36 195.808 315.808 191.506 318.881C187.204 321.953 178.907 324.412 169.075 325.026C159.242 325.641 151.252 323.49 137.732 319.188C124.212 314.886 125.134 312.12 126.056 309.97C126.977 307.819 135.274 305.668 135.274 305.668L168.46 295.22L168.045 295.206C164.424 295.781 162.354 296.465 162.354 296.465C162.354 296.465 127.706 303.235 123.325 309.209C123.325 309.209 123.325 316.378 124.122 317.573C124.918 318.767 126.909 324.343 144.433 327.131C161.956 329.918 169.125 332.308 182.267 327.529C195.41 322.75 199.392 319.166 202.976 315.581C206.561 311.997 208.154 308.413 207.756 306.023Z" fill="#263238" stroke="#263238" stroke-miterlimit="10"/>
<path d="M131.541 312.811C131.541 312.811 128.852 311.735 130.645 309.225C132.437 306.716 135.274 305.668 135.274 305.668" stroke="#263238" stroke-miterlimit="10"/>
<path d="M198.596 306.82C198.596 306.82 201.281 304.743 201.101 302.771C200.922 300.799 198.054 299.006 194.468 297.931" stroke="#263238" stroke-miterlimit="10"/>
<path d="M126.15 313.806V319.676" stroke="#C9C9C9" stroke-miterlimit="10"/>
<path d="M130.012 316.432L129.857 320.912" stroke="#C9C9C9" stroke-miterlimit="10"/>
<path d="M140.825 319.83L140.207 324.774" stroke="#C9C9C9" stroke-miterlimit="10"/>
<path d="M155.964 324.156L155.655 328.327" stroke="#C9C9C9" stroke-miterlimit="10"/>
<path d="M185.006 322.302L184.388 325.701" stroke="#C9C9C9" stroke-miterlimit="10"/>
<path d="M198.137 312.415V318.44" stroke="#C9C9C9" stroke-miterlimit="10"/>
<path d="M201.227 307.627L201.536 315.968" stroke="#C9C9C9" stroke-miterlimit="10"/>
<path d="M204.471 303.147V312.106" stroke="#C9C9C9" stroke-miterlimit="10"/>
<path d="M256.148 207.208C219.57 199.312 182.283 212.013 152.832 225.306C116.646 241.639 121.096 258.374 126.418 277.69C130.294 291.747 149.126 298.176 162.561 300.678C187.912 305.4 218.849 301.195 242.774 291.748C254.363 287.172 262.303 282.395 272.398 275.116C281.296 268.7 288.487 259.428 289.469 249.084C290.264 240.704 289.854 227.459 284.578 220.778C277.755 212.136 266.512 209.446 256.148 207.208Z" fill="#263238" stroke="#263238" stroke-miterlimit="10"/>
<path opacity="0.3" d="M279.577 218.527C280.314 217.897 280.442 217.064 279.104 215.781C277.126 213.885 264.265 215.013 261.756 216.794C259.443 218.438 261.969 218.245 262.679 219.725C263.868 222.202 262.936 224.528 263.047 224.895C261.438 225.037 260.612 226.494 261.543 228.008C262.432 229.452 263.73 228.551 265.456 228.402C265.648 229.678 265.409 230.878 265.494 232.125C270.301 231.924 269.496 228.498 270.681 225.66C270.798 227.007 272.12 227.666 271.897 228.53C270.99 232.042 268.709 231.559 265.63 233.784C265.796 236.052 266.233 238.422 264.291 239.822C264.218 240.468 264.547 240.529 264.171 241.137C261.74 241.678 259.238 242.03 256.783 242.492C257.051 241.899 257.192 241.117 257.204 240.065C256.398 239.916 256.02 239.267 255.472 239.036C256.534 238.221 260.977 236.045 261.178 234.849C261.738 231.504 255 232.882 253.626 233.548C250.821 234.908 251.632 237.457 248.403 236.658C247.697 236.484 247.037 235.157 246.407 235.062C244.698 234.805 242.182 237.192 240.933 238.343L234.772 239.729C232.582 240.395 231.106 244.265 234.494 243.993C235.374 246.435 238.285 244.897 240.186 245.266C237.361 253.932 247.575 247.768 245.11 243.751C247.238 242.752 249.268 244.548 251.58 244.431C252.926 244.363 254.016 244.285 254.87 244.039C255.245 245.938 255.753 247.617 254.407 249.155C250.551 253.56 240.842 249.479 235.816 251.027C235.055 253.504 232.802 251.111 231.35 252.727C229.49 254.796 232.964 257.864 228.431 259.136C231.933 269.646 217.877 264.193 214.19 260.287C212.64 258.644 212.701 255.187 209.438 255.98C207.695 256.404 207.068 257.915 207.173 259.71C204.127 257.597 201.291 257.047 198.13 259.49C199.211 263.996 193.955 266.606 190.769 264.059C189.009 270.015 183.766 265.315 182.603 261.911C182.053 260.301 182.457 255.957 181.311 254.855C176.508 250.235 171.874 258.334 172.982 262.27C170.253 262.657 164.647 263.853 161.94 262.272C161.354 261.93 161.688 260.204 160.824 259.678C160.195 259.296 159.501 258.509 158.788 258.247C156.575 257.433 156.528 259.245 155.136 259.033C151.59 258.492 149.145 255.001 145.277 255.5C141.25 256.019 143.704 257.439 140.314 259.759C137.736 261.523 136.283 260.193 134.413 258.631C133.72 258.051 134.315 256.646 133.668 256.166C133.001 255.671 130.547 255.314 130.742 255.491C130.279 255.073 129.768 254.759 129.326 254.407C129.851 253.758 130.037 252.696 130.483 252.135C131.961 250.281 133.228 250.302 135.64 249.516C138.55 248.567 138.871 248.133 139.921 245.168C140.388 243.85 142.648 242.599 135.695 240.545C134.543 242.004 133.066 243.467 131.904 244.721C131.464 245.195 131.922 245.7 130.88 246.426C130.212 246.892 129.172 246.559 128.474 246.915C126.432 247.956 123.577 252.961 126.818 254.559L125.45 260.88C126.803 268.507 128.221 280.501 129.727 281.905C131.338 283.407 130.107 284.413 136.151 289.435C150.154 301.072 172.324 301.102 179.076 301.369C182.921 301.52 186.255 302.019 190.038 301.354C201.5 299.337 219.909 297.615 231.116 294.451C243.641 290.916 252.601 285.159 264.416 279.729C283.234 271.08 291.375 253.017 287.948 233.156C287.149 228.523 285.409 219.596 279.577 218.527Z" fill="white"/>
<path opacity="0.3" d="M139.441 251.099L137.48 252.718C136.883 252.721 136.211 252.918 135.648 253.084C135.697 253.487 135.723 253.844 135.87 254.229C137.266 254.282 141.393 254.469 142.172 253.069C143.11 251.381 140.937 250.791 139.441 251.099Z" fill="white"/>
<path opacity="0.3" d="M207.671 253.117C208.94 253.801 210.402 254.406 211.465 254.963C213.807 256.189 214.277 256.614 217.325 255.821C217.076 255.181 217.298 254.07 217.023 253.409C223.436 250.665 219.935 247.009 214.65 247.37L207.556 248.918C204.417 250.026 205.134 251.75 207.671 253.117Z" fill="white"/>
<path opacity="0.3" d="M159.505 250.174C159.6 251.808 160.569 252.456 161.788 252.434L161.176 252.78C157.605 252.494 159.673 255.126 161.414 255.971C162.289 256.395 163.109 255.875 164.074 256.45C164.402 256.645 164.275 258.113 164.794 258.555C168.753 261.934 167.853 257.39 167.749 255.626C167.583 252.803 167.879 252.982 171.279 252.264C170.382 248.607 168.198 249.958 165.835 250.388C166.797 249.35 167.403 248.019 167.16 246.635C166.364 242.086 160.511 244.017 154.25 247.897C153.034 248.224 151.688 248.263 150.491 248.267C152.432 251.501 156.346 249.888 159.505 250.174Z" fill="white"/>
<path opacity="0.21" d="M146.091 280.859C146.604 283.961 148.589 281.749 150.331 282.343C153.073 283.278 152.287 285.97 154.592 287.168C159.57 289.754 158.923 282.228 158.152 279.579C160.315 278.845 160.028 275.243 157.934 274.314C156.584 273.715 155.788 275.552 154.755 275.302C153.482 274.994 153.446 274.372 152.647 273.983C151.254 273.304 149.314 270.026 147.432 273.23C146.042 275.593 150.294 278.428 145.421 279.123" fill="black"/>
<path opacity="0.21" d="M178.875 273.336C175.513 274.471 173.419 272.205 169.993 272.964C168.596 273.274 162.32 276.602 162.653 278.284C163.286 281.476 167.152 278.446 168.915 279.921C170.493 281.24 169.078 285.994 173.046 284.74C177.739 283.255 171.556 276.226 178.766 275.941C181.306 275.84 182.393 277.854 184.723 276.797C186.485 275.998 188.65 272.004 186.477 270.614C185.105 269.736 180.077 272.192 178.875 273.336Z" fill="black"/>
<path opacity="0.21" d="M190.329 281.728C184.462 283.346 186.463 286.36 187.408 290.383C188.041 293.072 185.401 291.838 189.265 293.579C191.929 294.779 195.889 295.247 197.704 293.158C199.36 291.251 196.858 289.164 201.807 288.699C203.848 288.507 205.739 289.82 207.853 289.158C211.257 288.093 214.437 281.405 211.35 278.409C209.708 276.816 204.587 277.29 202.538 277.049C203.918 271.322 198.996 269.875 193.925 271.461C186.366 273.825 195.222 276.345 190.329 281.728Z" fill="black"/>
<path opacity="0.21" d="M225.541 268.968C220.684 270.29 214.883 267.738 215.266 274.965C215.433 278.128 216.084 280.864 218.365 283.122C221.798 282.783 225.105 280.601 227.443 282.06C227.899 282.345 227.534 283.928 228.157 284.445C229.363 285.445 232.863 285.372 233.966 284.219C236.545 281.522 232.292 277.845 233.826 275.761C235.803 273.075 239.939 275.939 241.184 272.544C242.06 270.159 240.393 266.648 238.291 265.46C237.323 264.912 233.06 263.532 232.215 263.706C228.321 264.509 231.054 266.586 229.973 268.209C228.934 269.768 226.55 269.193 225.541 268.968Z" fill="black"/>
<path opacity="0.21" d="M218.878 288.274C217.383 288.312 215.787 288.757 215.063 290.037C216.61 292.001 219.238 292.878 221.701 292.235C222.265 289.193 224.511 284.254 219.459 285.21" fill="black"/>
<path opacity="0.21" d="M246.87 253.052C243.318 252.718 238.026 250.571 241.124 256.352C241.587 257.215 243.026 257.185 243.392 258.396C243.682 259.36 241.861 259.856 242.269 260.887C243.303 263.492 246.403 263.855 249.262 262.991C249.5 261.748 248.662 260.045 249.058 258.956C249.445 257.893 251.278 257.64 251.664 256.36C252.41 253.891 250.703 252.714 248.309 252.804" fill="black"/>
<path opacity="0.21" d="M260.288 268.514C255.297 269.544 247.839 267.582 253.486 273.801C252.35 274.743 250.823 276.161 251.511 277.894C253.105 281.911 257.123 277.057 258.89 276.223C261.352 275.062 264.022 276.254 266.8 275.1C272.627 272.679 270.524 270.979 270.911 266.845C271.283 262.871 273.606 262.696 269.86 258.664C267.973 256.634 265.473 254.381 262.589 256.661C256.739 261.286 269.608 262.632 261.776 266.405" fill="black"/>
<path opacity="0.21" d="M274.451 239.019C272.277 238.364 267.757 240.458 269.003 243.602C272.004 243.135 273.491 247.222 271.057 249.021C269.223 250.376 267.965 247.83 266.38 248.225C264.839 248.609 263.993 249.926 265.188 251.596C267.106 254.275 273.386 251.417 276.301 251.741C277.122 254.455 275.083 260.425 279.272 260.815C284.737 261.324 282.541 249.909 282.185 246.991C284.568 247.075 285.088 244.746 285.21 242.798C285.39 239.91 283.844 239.764 283.068 237.532C282.261 235.207 284.428 233.882 281.389 233C277.699 231.929 276.646 237.209 274.451 239.019Z" fill="black"/>
<path opacity="0.21" d="M139.085 263.918C137.462 263.591 132.202 259.651 131.805 264.333C131.606 266.668 140.298 269.863 135.292 271.659C134.861 275.332 138.407 274.293 139.788 276.335C143.22 275.796 145.27 271.349 144.325 268.243C148.195 269.476 156.121 274.987 153.728 266.112C151.763 258.826 148.179 263.355 139.085 263.918Z" fill="black"/>
<path opacity="0.21" d="M138.413 281.447C134.77 278.602 133.928 282.383 134.699 285.356C138.953 285.774 140.697 291.139 145.644 289.032C145.59 284.846 141.605 284.614 140.336 281.855" fill="black"/>
<path opacity="0.21" d="M164.865 288.726C162.701 288.93 159.655 289.216 160.559 292C158.355 293.304 156.424 292.437 154.152 292.857C155.33 297.486 165.81 296.169 169.34 296.64C172.747 297.094 178.242 302.212 181.977 299.843C186.182 297.177 179.494 293.613 179.382 291.401C179.281 289.379 183.187 287.926 180.486 285.276C178.55 283.377 177.967 284.993 176.689 286.393C175.019 288.222 174.789 291.442 170.617 290.333C168.282 289.712 167.717 287.574 167.2 285.416C166.579 285.456 165.673 285.47 164.865 288.726Z" fill="black"/>
<path opacity="0.21" d="M211.969 267.611C211.752 262.854 200.054 271.493 208.05 273.383C211.715 274.249 216.88 267.923 214.363 266.456" fill="black"/>
<path opacity="0.21" d="M245.768 278.807C244.019 281.539 239.88 280.979 237.518 283.097C236.861 283.686 237.947 284.702 237.313 285.393C236.192 286.614 233.149 286.92 231.849 287.871C237.914 289.949 241.506 286.4 246.128 282.921C248.783 280.923 249.886 279.393 245.768 278.807Z" fill="black"/>
<path opacity="0.21" d="M168.686 265.836C164.828 268.302 157.969 267.504 153.362 268.544C152.817 275.739 171.612 272.754 174.414 267.421C172.793 266.671 170.687 266.738 168.686 265.836Z" fill="black"/>
<path d="M144.359 195.74C144.359 195.74 130.372 206.944 125.096 211.26C119.82 215.577 110.707 234.762 112.626 237.64C114.544 240.518 127.115 226.238 148.685 225.035C170.254 223.833 206.633 234.762 218.144 245.314C229.655 255.866 234.061 278.231 241.93 275.202C249.799 272.173 253.157 241.956 266.586 231.884C280.016 221.812 289.609 217.016 295.844 215.577C302.079 214.138 306.396 218.455 307.355 215.577C308.314 212.699 296.899 202.749 279.536 192.075C262.174 181.401 216.251 171.454 201.85 172.172C187.448 172.89 168.418 185.017 144.359 195.74Z" fill="white" stroke="#263238" stroke-miterlimit="10"/>
<path d="M192.615 131.346C192.615 131.346 173.022 127.301 171.842 132.137C170.663 136.972 171.428 141.17 166.52 143.821C161.612 146.473 157.151 143.379 152.243 147.357C147.336 151.334 141.536 157.521 139.751 158.846C137.966 160.172 132.167 159.288 131.274 162.382C130.382 165.475 132.613 167.243 130.828 170.336C129.044 173.43 126.367 173.43 127.259 176.523C128.151 179.616 137.52 177.849 138.859 180.058C140.197 182.268 135.29 183.594 135.29 190.222C135.29 196.851 144.213 187.571 149.12 192.874C154.028 198.177 148.228 200.828 153.582 207.015C158.936 213.202 162.059 207.457 166.074 208.783C170.089 210.108 173.212 219.831 180.797 218.063C188.381 216.295 188.381 210.55 193.289 210.992C198.197 211.434 199.535 219.389 209.35 218.947C219.166 218.505 216.043 210.55 221.843 207.899C227.643 205.247 232.104 208.783 233.889 203.922C235.673 199.061 233.443 195.083 239.689 194.2C245.935 193.316 244.15 199.944 250.842 203.922C257.535 207.899 261.55 202.596 267.796 196.409C274.042 190.222 276.719 193.316 282.519 193.758C288.319 194.2 287.873 192.432 288.765 188.455C289.657 184.477 293.673 186.245 296.35 184.036C299.027 181.826 299.473 179.174 296.35 173.872C293.227 168.568 307.503 172.546 310.18 163.266C312.857 153.985 300.756 141.379 300.756 141.379C300.756 141.379 302.163 136.28 297.134 130.66C292.105 125.039 290.275 131.407 283.72 128.334C277.165 125.261 279.057 125.536 272.311 122.305C265.565 119.074 258.764 115.985 251.289 120.842C243.813 125.698 237.264 124.75 224.52 121.726C211.775 118.701 200.639 114.883 198.303 120.735C195.966 126.587 195.702 129.733 192.615 131.346Z" fill="#E82933" stroke="#263238" stroke-miterlimit="10"/>
<path d="M165.774 193.463C165.774 193.463 171.978 184.681 175.817 183.122L165.774 193.463Z" fill="#E82933"/>
<path d="M165.774 193.463C165.774 193.463 171.978 184.681 175.817 183.122" stroke="#263238" stroke-miterlimit="10"/>
<path d="M305.287 158.354C304.88 157.313 304.115 156.373 303.243 155.653C301.814 154.474 300.091 153.712 298.565 152.661C295.401 150.482 293.152 147.014 292.453 143.236C289.998 142.812 288.011 145.487 287.805 147.968C287.599 150.45 288.488 152.897 288.545 155.387C288.64 159.543 286.421 163.404 283.828 166.653C281.257 169.872 278.122 172.821 274.234 174.185C266.619 176.859 258.436 172.943 250.411 172.073C241.022 171.056 231.684 174.296 223.178 178.401C217.507 181.138 212.04 184.277 206.342 186.96C204.923 187.628 203.49 188.27 202.039 188.866C200.763 189.391 198.862 189.7 197.746 190.474C195.769 191.846 194.429 195.958 194.319 198.272C194.185 201.089 195.929 204.197 198.72 204.606C201.023 204.943 203.137 203.449 205.132 202.252C207.128 201.055 209.767 200.121 211.672 201.457C213.278 202.584 213.829 205.028 215.698 205.627C217.395 206.171 219.096 204.832 220.224 203.453C221.353 202.074 222.474 200.436 224.219 200.077C225.684 199.776 227.26 200.479 228.672 199.989C230.247 199.442 230.998 197.607 231.073 195.942C231.149 194.276 230.748 192.609 230.899 190.949C231.136 188.349 232.828 185.931 235.189 184.817C237.55 183.704 240.493 183.936 242.65 185.407C245.237 187.171 246.446 190.293 247.898 193.067C249.35 195.842 251.607 198.682 254.731 198.888C257.529 199.072 259.971 197.061 261.834 194.965C263.697 192.87 265.443 190.471 268.038 189.411C271.761 187.891 276.9 189.222 279.285 185.985C280.313 184.589 280.429 182.751 280.757 181.048C281.085 179.345 281.843 177.489 283.467 176.88C285.903 175.964 289.144 178.276 291.009 176.461C292.582 174.93 291.277 172.261 291.707 170.108C292.293 167.167 295.8 166.014 298.727 165.362C301.655 164.709 305.154 163.41 305.561 160.439C305.659 159.724 305.546 159.018 305.287 158.354Z" fill="#E82933" stroke="#263238" stroke-miterlimit="10"/>
<path d="M176.476 136.575C171.776 139.972 167.344 143.788 162.101 146.232C156.508 148.839 150.654 149.295 144.695 150.426C139.219 151.466 143.552 160.295 145.56 159.371C143.247 160.435 140.948 161.824 139.641 164.009C138.334 166.194 138.354 169.344 140.281 171.007C143.24 173.563 147.728 171.129 150.8 168.711C152.124 170.815 148.475 172.868 148.345 175.351C148.255 177.073 149.973 178.404 151.667 178.727C153.362 179.05 155.109 178.699 156.832 178.789C160.569 178.984 164.097 181.447 165.569 184.887C168.334 181.046 174.543 182.109 178.239 185.066C181.935 188.023 184.452 192.337 188.423 194.913C191.637 196.998 195.68 197.764 199.433 196.999C201.835 196.509 204.083 195.431 206.479 194.918C208.876 194.406 211.632 194.57 213.418 196.248C214.438 197.206 215.113 198.621 216.42 199.122C218.21 199.808 220.108 198.404 221.301 196.904C222.494 195.404 223.585 193.595 225.418 193.036C227.359 192.444 229.584 193.467 231.439 192.644C233.295 191.821 233.942 189.575 235.107 187.912C237.142 185.007 241.324 183.84 244.569 185.273C248.837 187.157 250.658 192.44 254.72 194.735C259.962 197.696 266.764 194.439 270.545 189.754C273.984 185.493 276.709 179.607 282.115 178.738C283.758 178.473 285.629 178.683 286.888 177.596C289.251 175.555 287.064 171.529 288.189 168.617C289.789 164.471 296.837 164.942 298.526 160.831C299.371 158.772 298.375 156.322 296.717 154.837C295.06 153.352 292.873 152.627 290.742 151.987C293.213 150.794 294.263 147.519 293.335 144.937C292.406 142.356 289.849 140.569 287.145 140.105C284.359 139.627 281.515 140.382 278.688 140.344C275.861 140.306 272.643 139.061 271.876 136.34C271.437 134.782 271.784 132.8 270.502 131.812C269.97 131.403 269.276 131.287 268.613 131.185C255.746 129.192 242.866 127.198 229.893 126.095C212.974 124.657 194.914 125.008 180.447 133.898C179.088 134.734 177.771 135.638 176.476 136.575Z" fill="#E82933" stroke="#263238" stroke-miterlimit="10"/>
<path d="M151.257 169.314L156.961 165.78" stroke="#263238" stroke-miterlimit="10"/>
<path d="M145.253 159.708L154.059 156.505" stroke="#263238" stroke-miterlimit="10"/>
<path d="M156.029 155.964L159.149 154.815" stroke="#263238" stroke-miterlimit="10"/>
<path d="M178.849 158.755L169.656 166.8" stroke="#263238" stroke-miterlimit="10"/>
<path d="M300.756 141.379C300.756 141.379 297.227 141.803 293.031 138.506C288.835 135.209 285.239 133.411 282.242 134.91C279.244 136.408 276.192 136.444 276.192 136.444" fill="#E82933"/>
<path d="M300.756 141.379C300.756 141.379 297.227 141.803 293.031 138.506C288.835 135.209 285.239 133.411 282.242 134.91C279.244 136.408 276.192 136.444 276.192 136.444" stroke="#263238" stroke-miterlimit="10"/>
<path d="M147.242 188.095L159.035 181.083" stroke="#263238" stroke-miterlimit="10"/>
<path d="M227.546 165.284C228.885 169.445 230.551 174.312 231.705 176.621C233.936 181.083 234.893 183.633 234.893 183.633" fill="#E82933"/>
<path d="M227.546 165.284C228.885 169.445 230.551 174.312 231.705 176.621C233.936 181.083 234.893 183.633 234.893 183.633" stroke="#263238" stroke-miterlimit="10"/>
<path d="M225.331 158.135C225.331 158.135 225.891 160.031 226.71 162.651L225.331 158.135Z" fill="#E82933"/>
<path d="M225.331 158.135C225.331 158.135 225.891 160.031 226.71 162.651" stroke="#263238" stroke-miterlimit="10"/>
<path d="M246.212 181.011C243.046 176.403 237.968 168.854 235.849 164.828L246.212 181.011Z" fill="#E82933"/>
<path d="M246.212 181.011C243.046 176.403 237.968 168.854 235.849 164.828" stroke="#263238" stroke-miterlimit="10"/>
<path d="M248.917 184.908C248.917 184.908 248.46 184.259 247.71 183.181L248.917 184.908Z" fill="#E82933"/>
<path d="M248.917 184.908C248.917 184.908 248.46 184.259 247.71 183.181" stroke="#263238" stroke-miterlimit="10"/>
<path d="M290.033 164.19C290.033 164.19 284.296 163.872 277.603 160.047C270.909 156.222 262.622 153.035 262.622 153.035" fill="#E82933"/>
<path d="M290.033 164.19C290.033 164.19 284.296 163.872 277.603 160.047C270.909 156.222 262.622 153.035 262.622 153.035" stroke="#263238" stroke-miterlimit="10"/>
<path d="M269.316 138.373C269.316 138.373 262.941 135.505 252.423 133.911C241.905 132.317 230.749 131.68 230.749 131.68" fill="#E82933"/>
<path d="M269.316 138.373C269.316 138.373 262.941 135.505 252.423 133.911C241.905 132.317 230.749 131.68 230.749 131.68" stroke="#263238" stroke-miterlimit="10"/>
<path d="M200.788 152.079C200.788 152.079 197.282 161.322 194.414 164.509C191.545 167.697 185.431 166.405 182.94 170.246C180.448 174.088 184.533 178.852 181.983 182.039" fill="#E82933"/>
<path d="M200.788 152.079C200.788 152.079 197.282 161.322 194.414 164.509C191.545 167.697 185.431 166.405 182.94 170.246C180.448 174.088 184.533 178.852 181.983 182.039" stroke="#263238" stroke-miterlimit="10"/>
<path d="M213.252 176.873C215.382 177.597 216.431 183.891 219.912 183.633C223.891 183.338 225.649 179.808 226.924 177.577" fill="#E82933"/>
<path d="M213.252 176.873C215.382 177.597 216.431 183.891 219.912 183.633C223.891 183.338 225.649 179.808 226.924 177.577" stroke="#263238" stroke-miterlimit="10"/>
<path d="M182.621 176.621C182.621 176.621 185.808 169.29 190.589 171.84C195.37 174.39 188.995 178.533 192.501 181.402C196.007 184.271 197.506 172.825 201.107 175.984C204.708 179.142 199.195 185.545 203.02 187.777C205.819 189.41 207.936 183.528 209.994 179.759" fill="#E82933"/>
<path d="M182.621 176.621C182.621 176.621 185.808 169.29 190.589 171.84C195.37 174.39 188.995 178.533 192.501 181.402C196.007 184.271 197.506 172.825 201.107 175.984C204.708 179.142 199.195 185.545 203.02 187.777C205.819 189.41 207.936 183.528 209.994 179.759" stroke="#263238" stroke-miterlimit="10"/>
<path d="M149.12 192.874C149.12 192.874 154.572 187.139 157.76 192.239C160.947 197.339 154.891 204.351 159.991 202.757C165.091 201.163 162.222 189.37 169.872 193.832C177.521 198.295 171.465 201.801 172.421 204.988C173.378 208.175 179.752 204.988 179.752 208.175C179.752 211.363 182.94 213.275 184.533 210.406C186.127 207.538 187.402 200.845 191.545 204.032" fill="#E82933"/>
<path d="M149.12 192.874C149.12 192.874 154.572 187.139 157.76 192.239C160.947 197.339 154.891 204.351 159.991 202.757C165.091 201.163 162.222 189.37 169.872 193.832C177.521 198.295 171.465 201.801 172.421 204.988C173.378 208.175 179.752 204.988 179.752 208.175C179.752 211.363 182.94 213.275 184.533 210.406C186.127 207.538 187.402 200.845 191.545 204.032" stroke="#263238" stroke-miterlimit="10"/>
<path d="M138.955 169.609L129.393 174.071" stroke="#263238" stroke-miterlimit="10"/>
<path d="M211.131 192.947C211.131 202.934 196.247 211.029 177.886 211.029C159.526 211.029 144.642 202.934 144.642 192.947C144.642 192.133 144.45 186.895 144.642 186.11C146.8 177.258 161.022 174.865 177.886 174.865C194.794 174.865 209.027 177.225 211.131 186.11C211.312 186.873 211.131 192.157 211.131 192.947Z" fill="#263238" stroke="#263238" stroke-miterlimit="10"/>
<path d="M177.886 204.192C196.247 204.192 211.131 196.096 211.131 186.11C211.131 176.123 196.247 168.028 177.886 168.028C159.526 168.028 144.642 176.123 144.642 186.11C144.642 196.096 159.526 204.192 177.886 204.192Z" fill="#E82933" stroke="#263238" stroke-miterlimit="10"/>
<path opacity="0.25" d="M177.886 204.192C196.247 204.192 211.131 196.096 211.131 186.11C211.131 176.123 196.247 168.028 177.886 168.028C159.526 168.028 144.642 176.123 144.642 186.11C144.642 196.096 159.526 204.192 177.886 204.192Z" fill="#969696"/>
<path d="M177.886 204.192C196.247 204.192 211.131 196.096 211.131 186.11C211.131 176.123 196.247 168.028 177.886 168.028C159.526 168.028 144.642 176.123 144.642 186.11C144.642 196.096 159.526 204.192 177.886 204.192Z" stroke="#263238" stroke-miterlimit="10"/>
<path d="M171.974 184.267C173.198 182.557 171.668 182.272 171.668 182.272C171.668 182.272 166.77 180.563 164.015 181.988C161.26 183.412 157.281 185.691 154.832 183.982C152.383 182.272 156.975 179.423 161.872 176.859C161.872 176.859 162.897 176.623 164.178 176.524C164.123 176.435 164.089 176.339 164.089 176.239C164.089 175.791 164.683 175.428 165.415 175.428C166.148 175.428 166.742 175.791 166.742 176.239C166.742 176.362 166.694 176.477 166.613 176.582C166.994 176.642 167.36 176.729 167.688 176.859C169.831 177.714 174.422 178.569 175.647 176.574C176.871 174.58 173.504 169.737 165.852 172.016C161.946 173.179 159.487 174.415 158.777 175.348C154.728 177.461 150.649 180.209 149.016 182.557C145.649 187.401 155.102 193.365 158.775 192.511C162.449 191.656 170.749 185.976 171.974 184.267ZM169.911 174.691C170.44 174.691 170.869 174.889 170.869 175.133C170.869 175.377 170.44 175.575 169.911 175.575C169.382 175.575 168.953 175.377 168.953 175.133C168.953 174.889 169.382 174.691 169.911 174.691ZM158.34 176.312C159.154 176.312 159.814 176.609 159.814 176.976C159.814 177.342 159.154 177.639 158.34 177.639C157.526 177.639 156.866 177.342 156.866 176.976C156.866 176.609 157.526 176.312 158.34 176.312ZM154.876 186.631C153.94 186.631 153.181 186.136 153.181 185.525C153.181 184.915 153.94 184.42 154.876 184.42C155.812 184.42 156.571 184.915 156.571 185.525C156.571 186.136 155.812 186.631 154.876 186.631ZM159.74 186.631C159.293 186.631 158.93 186.466 158.93 186.262C158.93 186.059 159.293 185.894 159.74 185.894C160.188 185.894 160.551 186.059 160.551 186.262C160.551 186.466 160.188 186.631 159.74 186.631ZM163.057 185.894C162.406 185.894 161.878 185.63 161.878 185.304C161.878 184.978 162.406 184.714 163.057 184.714C163.708 184.714 164.236 184.978 164.236 185.304C164.236 185.63 163.708 185.894 163.057 185.894Z" fill="#263238"/>
<path d="M186.972 185.121C186.972 185.121 186.735 185.218 186.338 185.341C187.136 187.332 187.295 190.034 186.054 191.959C184.217 194.808 175.647 195.093 173.504 193.383C171.361 191.674 174.728 190.25 177.735 186.863C178.457 186.05 179.045 185.566 179.525 185.29C178.047 184.989 177.149 184.836 176.259 184.836C175.035 184.836 173.198 186.546 170.443 188.54C167.688 190.534 162.485 195.663 162.485 195.663C162.485 195.663 165.852 198.796 175.035 199.936C184.217 201.076 191.87 199.366 194.931 197.942C197.992 196.517 200.747 193.668 201.053 192.814C201.359 191.959 186.972 185.121 186.972 185.121ZM174.039 196.212C173.347 196.212 172.786 195.849 172.786 195.401C172.786 194.953 173.347 194.59 174.039 194.59C174.731 194.59 175.291 194.953 175.291 195.401C175.291 195.849 174.731 196.212 174.039 196.212ZM180.156 196.949C179.586 196.949 179.124 196.652 179.124 196.286C179.124 195.919 179.586 195.622 180.156 195.622C180.726 195.622 181.188 195.919 181.188 196.286C181.188 196.652 180.726 196.949 180.156 196.949ZM185.757 196.507C185.187 196.507 184.725 196.276 184.725 195.991C184.725 195.706 185.187 195.475 185.757 195.475C186.327 195.475 186.789 195.706 186.789 195.991C186.789 196.276 186.327 196.507 185.757 196.507ZM188.632 192.674C187.533 192.674 186.642 192.113 186.642 191.421C186.642 190.729 187.533 190.168 188.632 190.168C189.731 190.168 190.621 190.729 190.621 191.421C190.621 192.113 189.731 192.674 188.632 192.674Z" fill="#263238"/>
<path d="M201.359 175.72C198.604 174.295 188.809 171.161 185.442 171.161C182.075 171.161 179.626 174.01 181.769 175.435C183.911 176.859 182.687 173.156 186.054 173.725C188.815 174.193 193.011 174.472 194.603 176.597C194.613 176.276 195.069 176.018 195.633 176.018C196.203 176.018 196.665 176.282 196.665 176.607C196.665 176.933 196.203 177.197 195.633 177.197C195.322 177.197 195.045 177.116 194.856 176.991C195.061 177.369 195.197 177.795 195.237 178.284C195.543 181.988 187.584 181.133 187.584 181.133C187.584 181.133 203.344 191.118 204.875 189.123C206.405 187.129 204.114 177.144 201.359 175.72ZM188.189 173.659C187.66 173.659 187.231 173.362 187.231 172.996C187.231 172.629 187.66 172.332 188.189 172.332C188.718 172.332 189.147 172.629 189.147 172.996C189.147 173.362 188.718 173.659 188.189 173.659ZM191.948 183.093C191.378 183.093 190.916 182.829 190.916 182.503C190.916 182.178 191.378 181.914 191.948 181.914C192.518 181.914 192.98 182.178 192.98 182.503C192.98 182.829 192.518 183.093 191.948 183.093ZM195.854 182.356C194.837 182.356 194.012 181.96 194.012 181.472C194.012 180.983 194.837 180.587 195.854 180.587C196.872 180.587 197.697 180.983 197.697 181.472C197.697 181.96 196.872 182.356 195.854 182.356ZM199.908 179.703C199.419 179.703 199.024 179.373 199.024 178.966C199.024 178.559 199.419 178.229 199.908 178.229C200.396 178.229 200.792 178.559 200.792 178.966C200.792 179.373 200.396 179.703 199.908 179.703Z" fill="#263238"/>
<path d="M274.554 134.31C280.504 142.33 273.374 157.7 258.628 168.64C243.882 179.579 227.105 181.946 221.155 173.925C220.67 173.272 217.395 169.179 217.081 168.434C213.54 160.039 223.537 149.643 237.081 139.595C250.66 129.522 263.497 122.936 270.48 128.819C271.081 129.324 274.083 133.675 274.554 134.31Z" fill="#263238" stroke="#263238" stroke-miterlimit="10"/>
<path d="M254.554 163.148C269.3 152.209 276.43 136.839 270.48 128.819C264.53 120.798 247.753 123.165 233.007 134.104C218.261 145.043 211.131 160.413 217.081 168.434C223.031 176.454 239.808 174.088 254.554 163.148Z" fill="#E82933" stroke="#263238" stroke-miterlimit="10"/>
<path opacity="0.25" d="M254.554 163.148C269.3 152.209 276.43 136.839 270.48 128.819C264.53 120.798 247.753 123.165 233.007 134.104C218.261 145.043 211.131 160.413 217.081 168.434C223.031 176.454 239.808 174.088 254.554 163.148Z" fill="#969696"/>
<path d="M254.554 163.148C269.3 152.209 276.43 136.839 270.48 128.819C264.53 120.798 247.753 123.165 233.007 134.104C218.261 145.043 211.131 160.413 217.081 168.434C223.031 176.454 239.808 174.088 254.554 163.148Z" stroke="#263238" stroke-miterlimit="10"/>
<path d="M237.934 150.669C237.899 148.567 236.5 149.25 236.5 149.25C236.5 149.25 231.548 150.795 230.184 153.58C228.821 156.366 226.983 160.567 223.998 160.653C221.012 160.739 223.002 155.716 225.408 150.738C225.408 150.738 226.09 149.938 227.059 149.095C226.962 149.057 226.878 149 226.818 148.919C226.552 148.56 226.812 147.914 227.401 147.478C227.989 147.041 228.682 146.979 228.949 147.339C229.022 147.437 229.052 147.559 229.05 147.691C229.392 147.512 229.738 147.364 230.079 147.273C232.309 146.683 236.506 144.634 236.301 142.303C236.096 139.971 230.506 138.088 225.718 144.478C223.275 147.739 222.036 150.197 222.021 151.369C220.029 155.478 218.39 160.116 218.478 162.974C218.659 168.87 229.805 168.028 232.246 165.154C234.687 162.279 237.969 152.771 237.934 150.669ZM230.572 144.207C230.997 143.892 231.46 143.795 231.605 143.992C231.751 144.188 231.524 144.602 231.099 144.918C230.674 145.233 230.212 145.329 230.066 145.133C229.921 144.937 230.147 144.522 230.572 144.207ZM222.245 152.404C222.899 151.919 223.606 151.764 223.824 152.058C224.042 152.352 223.689 152.984 223.036 153.469C222.382 153.954 221.675 154.109 221.457 153.815C221.238 153.521 221.591 152.889 222.245 152.404ZM225.611 162.755C224.859 163.312 223.955 163.367 223.591 162.877C223.227 162.386 223.542 161.537 224.294 160.979C225.045 160.421 225.95 160.366 226.314 160.857C226.677 161.347 226.363 162.197 225.611 162.755ZM229.518 159.856C229.158 160.123 228.768 160.207 228.647 160.043C228.526 159.88 228.719 159.531 229.078 159.264C229.438 158.998 229.828 158.914 229.949 159.077C230.07 159.241 229.877 159.59 229.518 159.856ZM231.742 157.288C231.219 157.676 230.638 157.779 230.444 157.517C230.25 157.256 230.516 156.729 231.039 156.341C231.563 155.953 232.144 155.851 232.338 156.112C232.532 156.374 232.265 156.9 231.742 157.288Z" fill="#263238"/>
<path d="M250.489 142.419C250.489 142.419 250.356 142.638 250.11 142.973C251.938 144.097 253.675 146.173 253.825 148.457C254.048 151.84 247.334 157.175 244.595 157.079C241.856 156.983 243.711 153.833 244.108 149.322C244.204 148.238 244.387 147.499 244.608 146.992C243.242 147.631 242.43 148.043 241.715 148.573C240.732 149.303 240.275 151.77 239.251 155.013C238.227 158.256 237.103 165.475 237.103 165.475C237.103 165.475 241.674 165.986 249.728 161.43C257.782 156.874 262.91 150.941 264.519 147.974C266.129 145.006 266.644 141.076 266.38 140.207C266.117 139.339 250.489 142.419 250.489 142.419ZM246.71 159.032C246.154 159.444 245.487 159.487 245.22 159.128C244.953 158.768 245.188 158.142 245.743 157.73C246.299 157.318 246.966 157.275 247.233 157.635C247.5 157.994 247.265 158.62 246.71 159.032ZM252.062 155.979C251.604 156.319 251.056 156.356 250.838 156.061C250.619 155.767 250.813 155.253 251.271 154.914C251.729 154.574 252.277 154.538 252.495 154.832C252.713 155.126 252.519 155.64 252.062 155.979ZM256.297 152.287C255.839 152.626 255.33 152.716 255.161 152.487C254.991 152.258 255.224 151.798 255.682 151.458C256.14 151.119 256.648 151.029 256.818 151.258C256.988 151.487 256.754 151.947 256.297 152.287ZM256.322 147.496C255.439 148.151 254.389 148.231 253.977 147.676C253.565 147.12 253.946 146.139 254.829 145.484C255.711 144.829 256.761 144.749 257.173 145.304C257.586 145.86 257.204 146.841 256.322 147.496Z" fill="#263238"/>
<path d="M256.442 126.297C253.38 126.794 243.646 130.113 240.942 132.119C238.238 134.125 237.969 137.872 240.538 137.74C243.108 137.607 239.918 135.362 242.962 133.814C245.457 132.544 248.993 130.268 251.539 131.026C251.355 130.763 251.568 130.283 252.021 129.947C252.478 129.608 253.007 129.544 253.201 129.806C253.395 130.067 253.181 130.555 252.723 130.894C252.473 131.08 252.203 131.18 251.977 131.192C252.366 131.374 252.729 131.635 253.053 132.003C255.505 134.796 248.604 138.851 248.604 138.851C248.604 138.851 267.21 137.48 267.251 134.967C267.292 132.453 259.503 125.799 256.442 126.297ZM244.637 132.488C244.212 132.804 243.691 132.821 243.472 132.526C243.254 132.232 243.422 131.738 243.847 131.423C244.272 131.107 244.793 131.09 245.011 131.385C245.23 131.679 245.062 132.173 244.637 132.488ZM253.277 137.825C252.819 138.165 252.291 138.228 252.097 137.966C251.903 137.705 252.116 137.218 252.574 136.878C253.032 136.539 253.56 136.475 253.754 136.737C253.948 136.998 253.734 137.486 253.277 137.825ZM255.975 134.906C255.157 135.512 254.259 135.686 253.968 135.293C253.677 134.901 254.103 134.092 254.921 133.485C255.738 132.879 256.637 132.706 256.928 133.098C257.219 133.49 256.792 134.3 255.975 134.906ZM257.649 130.36C257.257 130.651 256.743 130.622 256.5 130.295C256.257 129.968 256.379 129.467 256.771 129.176C257.163 128.885 257.678 128.914 257.921 129.241C258.163 129.568 258.042 130.069 257.649 130.36Z" fill="#263238"/>
<path d="M237.608 128.872C237.608 138.859 222.724 146.954 204.363 146.954C186.003 146.954 171.119 138.859 171.119 128.872C171.119 128.058 170.927 122.82 171.119 122.035C173.277 113.183 187.499 110.79 204.363 110.79C221.271 110.79 235.504 113.15 237.608 122.035C237.789 122.798 237.608 128.082 237.608 128.872Z" fill="#263238" stroke="#263238" stroke-miterlimit="10"/>
<path d="M204.363 140.117C222.724 140.117 237.608 132.021 237.608 122.035C237.608 112.048 222.724 103.952 204.363 103.952C186.003 103.952 171.119 112.048 171.119 122.035C171.119 132.021 186.003 140.117 204.363 140.117Z" fill="#E82933" stroke="#263238" stroke-miterlimit="10"/>
<path opacity="0.25" d="M204.363 140.117C222.724 140.117 237.608 132.021 237.608 122.035C237.608 112.048 222.724 103.952 204.363 103.952C186.003 103.952 171.119 112.048 171.119 122.035C171.119 132.021 186.003 140.117 204.363 140.117Z" fill="#969696"/>
<path d="M204.363 140.117C222.724 140.117 237.608 132.021 237.608 122.035C237.608 112.048 222.724 103.952 204.363 103.952C186.003 103.952 171.119 112.048 171.119 122.035C171.119 132.021 186.003 140.117 204.363 140.117Z" stroke="#263238" stroke-miterlimit="10"/>
<path d="M198.451 120.192C199.675 118.482 198.145 118.197 198.145 118.197C198.145 118.197 193.247 116.488 190.492 117.912C187.737 119.337 183.758 121.616 181.309 119.907C178.86 118.197 183.452 115.348 188.349 112.784C188.349 112.784 189.374 112.548 190.655 112.449C190.6 112.36 190.566 112.264 190.566 112.164C190.566 111.716 191.16 111.353 191.892 111.353C192.625 111.353 193.219 111.716 193.219 112.164C193.219 112.287 193.171 112.402 193.09 112.507C193.471 112.566 193.837 112.653 194.165 112.784C196.308 113.639 200.899 114.494 202.124 112.499C203.348 110.505 199.981 105.662 192.329 107.941C188.423 109.104 185.964 110.34 185.254 111.273C181.205 113.386 177.126 116.134 175.493 118.482C172.126 123.326 181.579 129.29 185.252 128.436C188.926 127.581 197.226 121.901 198.451 120.192ZM196.388 110.616C196.917 110.616 197.346 110.814 197.346 111.058C197.346 111.302 196.917 111.5 196.388 111.5C195.859 111.5 195.43 111.302 195.43 111.058C195.43 110.814 195.859 110.616 196.388 110.616ZM184.817 112.237C185.631 112.237 186.291 112.534 186.291 112.901C186.291 113.267 185.631 113.564 184.817 113.564C184.003 113.564 183.343 113.267 183.343 112.901C183.343 112.534 184.003 112.237 184.817 112.237ZM181.353 122.556C180.417 122.556 179.658 122.061 179.658 121.45C179.658 120.84 180.417 120.345 181.353 120.345C182.289 120.345 183.048 120.84 183.048 121.45C183.048 122.061 182.289 122.556 181.353 122.556ZM186.217 122.556C185.77 122.556 185.407 122.391 185.407 122.187C185.407 121.984 185.77 121.819 186.217 121.819C186.665 121.819 187.028 121.984 187.028 122.187C187.028 122.391 186.665 122.556 186.217 122.556ZM189.534 121.819C188.883 121.819 188.355 121.555 188.355 121.229C188.355 120.903 188.883 120.639 189.534 120.639C190.185 120.639 190.713 120.903 190.713 121.229C190.713 121.555 190.185 121.819 189.534 121.819Z" fill="#263238"/>
<path d="M213.449 121.046C213.449 121.046 213.212 121.143 212.815 121.266C213.613 123.257 213.772 125.959 212.531 127.884C210.694 130.733 202.124 131.018 199.981 129.308C197.838 127.599 201.206 126.174 204.212 122.788C204.934 121.975 205.522 121.491 206.002 121.215C204.524 120.914 203.626 120.761 202.736 120.761C201.512 120.761 199.675 122.471 196.92 124.465C194.165 126.459 188.962 131.588 188.962 131.588C188.962 131.588 192.329 134.721 201.512 135.861C210.694 137.001 218.347 135.291 221.408 133.867C224.469 132.442 227.224 129.593 227.53 128.739C227.836 127.884 213.449 121.046 213.449 121.046ZM200.516 132.137C199.824 132.137 199.263 131.774 199.263 131.326C199.263 130.878 199.824 130.515 200.516 130.515C201.208 130.515 201.768 130.878 201.768 131.326C201.768 131.774 201.208 132.137 200.516 132.137ZM206.633 132.874C206.063 132.874 205.601 132.577 205.601 132.211C205.601 131.844 206.063 131.547 206.633 131.547C207.203 131.547 207.665 131.844 207.665 132.211C207.665 132.577 207.203 132.874 206.633 132.874ZM212.234 132.432C211.664 132.432 211.202 132.201 211.202 131.916C211.202 131.631 211.664 131.4 212.234 131.4C212.804 131.4 213.266 131.631 213.266 131.916C213.266 132.201 212.804 132.432 212.234 132.432ZM215.109 128.599C214.01 128.599 213.119 128.038 213.119 127.346C213.119 126.654 214.01 126.093 215.109 126.093C216.208 126.093 217.099 126.654 217.099 127.346C217.099 128.038 216.208 128.599 215.109 128.599Z" fill="#263238"/>
<path d="M227.836 111.645C225.081 110.22 215.286 107.086 211.919 107.086C208.552 107.086 206.103 109.935 208.246 111.36C210.388 112.784 209.164 109.081 212.531 109.65C215.292 110.118 219.488 110.397 221.08 112.522C221.09 112.201 221.546 111.942 222.11 111.942C222.68 111.942 223.142 112.207 223.142 112.532C223.142 112.858 222.68 113.122 222.11 113.122C221.799 113.122 221.522 113.041 221.333 112.916C221.538 113.294 221.674 113.72 221.714 114.209C222.02 117.912 214.062 117.058 214.062 117.058C214.062 117.058 229.821 127.042 231.352 125.048C232.882 123.054 230.591 113.069 227.836 111.645ZM214.666 109.584C214.137 109.584 213.708 109.287 213.708 108.921C213.708 108.554 214.137 108.257 214.666 108.257C215.196 108.257 215.624 108.554 215.624 108.921C215.624 109.287 215.196 109.584 214.666 109.584ZM218.425 119.018C217.855 119.018 217.393 118.754 217.393 118.428C217.393 118.103 217.855 117.839 218.425 117.839C218.995 117.839 219.457 118.103 219.457 118.428C219.457 118.754 218.995 119.018 218.425 119.018ZM222.331 118.281C221.314 118.281 220.489 117.885 220.489 117.397C220.489 116.908 221.314 116.512 222.331 116.512C223.349 116.512 224.174 116.908 224.174 117.397C224.174 117.885 223.349 118.281 222.331 118.281ZM226.385 115.628C225.897 115.628 225.501 115.298 225.501 114.891C225.501 114.484 225.897 114.154 226.385 114.154C226.874 114.154 227.27 114.484 227.27 114.891C227.27 115.298 226.874 115.628 226.385 115.628Z" fill="#263238"/>
<path d="M216.179 153.888C216.208 153.081 216.495 152.696 216.355 151.926C216.211 151.138 216.664 149.776 216.355 149.033C216.04 148.278 214.92 148.047 214.446 147.348C213.967 146.641 212.444 146.345 211.817 145.704C211.185 145.06 211.366 143.989 210.597 143.42C209.827 142.85 208.204 142.855 207.309 142.369C206.416 141.884 206.138 140.847 205.135 140.455C204.138 140.065 202.546 140.37 201.453 140.081C200.373 139.794 199.654 138.874 198.493 138.694C197.352 138.517 195.92 139.1 194.715 139.033C193.538 138.968 192.436 138.241 191.209 138.289C189.982 138.336 188.824 139.149 187.639 139.305C186.425 139.465 185.031 138.991 183.874 139.256C182.697 139.526 181.909 140.504 180.805 140.875C179.689 141.249 178.114 141.066 177.086 141.533C176.052 142.004 175.697 143.066 174.766 143.621C173.834 144.176 172.207 144.297 171.393 144.928C170.58 145.558 170.685 146.618 170.004 147.313C169.328 148.003 167.78 148.417 167.248 149.163C166.723 149.9 165.372 150.226 165.002 151.008C164.638 151.776 165.203 153.099 165.002 153.901C164.805 154.684 164.855 155.055 164.826 155.862C164.797 156.669 164.686 157.985 164.826 158.755C164.969 159.544 166.267 160.12 166.576 160.862C166.891 161.617 166.261 162.635 166.735 163.334C167.213 164.04 168.736 164.337 169.364 164.977C169.996 165.622 169.814 166.693 170.583 167.262C171.354 167.832 172.977 167.827 173.871 168.313C174.764 168.798 175.043 169.835 176.046 170.227C177.043 170.617 178.635 170.312 179.727 170.601C180.808 170.888 181.527 171.807 182.688 171.988C183.828 172.165 185.26 171.581 186.466 171.648C187.643 171.714 188.745 172.44 189.972 172.393C191.199 172.346 192.357 171.532 193.542 171.376C194.756 171.216 196.15 171.691 197.306 171.425C198.483 171.155 199.271 170.178 200.376 169.807C201.492 169.433 203.067 169.616 204.095 169.148C205.129 168.678 205.484 167.616 206.414 167.061C207.347 166.505 208.974 166.385 209.788 165.754C210.6 165.124 210.496 164.064 211.176 163.369C211.852 162.678 213.401 162.264 213.932 161.519C214.458 160.782 213.9 159.809 214.27 159.028C214.635 158.26 215.977 157.583 216.179 156.781C216.375 155.998 216.149 154.694 216.179 153.888Z" fill="#E82933" stroke="#263238" stroke-linecap="round" stroke-linejoin="round"/>
<path d="M215.438 151.492C215.467 150.686 216.495 149.803 216.355 149.033C216.211 148.244 214.914 147.669 214.604 146.927C214.29 146.172 214.92 145.154 214.446 144.455C213.967 143.748 212.444 143.452 211.817 142.811C211.185 142.167 211.366 141.096 210.597 140.527C209.827 139.957 208.204 139.962 207.309 139.476C206.416 138.991 206.138 137.954 205.135 137.562C204.138 137.172 202.546 137.477 201.453 137.187C200.373 136.901 199.654 135.981 198.493 135.801C197.352 135.624 195.92 136.207 194.715 136.14C193.538 136.075 192.436 135.348 191.209 135.396C189.982 135.443 188.824 136.256 187.639 136.412C186.425 136.572 185.031 136.098 183.874 136.363C182.697 136.633 181.909 137.611 180.805 137.981C179.689 138.356 178.114 138.173 177.086 138.64C176.052 139.111 175.697 140.173 174.766 140.727C173.834 141.283 172.207 141.404 171.393 142.035C170.58 142.664 170.685 143.724 170.004 144.419C169.328 145.11 167.78 145.524 167.248 146.27C166.723 147.007 167.281 147.979 166.91 148.761C166.546 149.529 165.203 150.206 165.002 151.008C164.805 151.791 165.772 152.596 165.743 153.403C165.714 154.21 164.686 155.092 164.826 155.862C164.969 156.651 166.267 157.226 166.576 157.969C166.891 158.724 166.261 159.742 166.735 160.441C167.213 161.147 168.736 161.443 169.364 162.084C169.996 162.729 169.814 163.8 170.583 164.369C171.354 164.939 172.977 164.934 173.871 165.42C174.764 165.904 175.043 166.942 176.046 167.334C177.043 167.724 178.635 167.418 179.727 167.708C180.808 167.994 181.527 168.914 182.688 169.094C183.828 169.272 185.26 168.688 186.466 168.755C187.643 168.82 188.745 169.547 189.972 169.5C191.199 169.453 192.357 168.639 193.542 168.483C194.756 168.323 196.15 168.798 197.306 168.532C198.483 168.262 199.272 167.284 200.376 166.914C201.492 166.539 203.067 166.723 204.095 166.255C205.129 165.785 205.484 164.723 206.414 164.168C207.347 163.612 208.974 163.492 209.788 162.861C210.6 162.231 210.496 161.171 211.176 160.476C211.852 159.785 213.401 159.371 213.932 158.626C214.458 157.889 213.9 156.916 214.27 156.135C214.635 155.366 215.978 154.69 216.179 153.888C216.375 153.105 215.408 152.299 215.438 151.492Z" fill="#E82933" stroke="#263238" stroke-linecap="round" stroke-linejoin="round"/>
<path opacity="0.69" d="M213.017 151.585C213.043 150.857 213.971 150.061 213.845 149.366C213.715 148.654 212.544 148.135 212.265 147.465C211.981 146.783 212.549 145.864 212.122 145.233C211.69 144.596 210.315 144.328 209.749 143.75C209.179 143.169 209.342 142.202 208.648 141.688C207.953 141.174 206.488 141.178 205.681 140.74C204.875 140.302 204.623 139.366 203.718 139.012C202.818 138.66 201.381 138.936 200.395 138.674C199.42 138.416 198.771 137.586 197.723 137.423C196.694 137.263 195.401 137.789 194.313 137.729C193.251 137.67 192.256 137.014 191.149 137.057C190.041 137.099 188.996 137.834 187.926 137.975C186.83 138.119 185.573 137.691 184.529 137.93C183.466 138.174 182.755 139.056 181.758 139.391C180.751 139.729 179.329 139.563 178.402 139.985C177.468 140.41 177.148 141.368 176.308 141.869C175.466 142.371 173.998 142.48 173.263 143.049C172.53 143.618 172.624 144.574 172.01 145.202C171.4 145.825 170.002 146.199 169.522 146.872C169.048 147.537 169.552 148.415 169.217 149.12C168.889 149.813 167.676 150.424 167.495 151.148C167.318 151.855 168.19 152.582 168.164 153.31C168.137 154.038 167.209 154.835 167.336 155.529C167.466 156.242 168.637 156.761 168.916 157.431C169.2 158.112 168.631 159.031 169.059 159.662C169.491 160.3 170.865 160.567 171.432 161.145C172.002 161.727 171.838 162.694 172.532 163.207C173.228 163.722 174.693 163.717 175.5 164.156C176.306 164.593 176.557 165.53 177.463 165.884C178.363 166.235 179.8 165.96 180.786 166.221C181.761 166.48 182.41 167.31 183.457 167.473C184.487 167.633 185.779 167.106 186.868 167.166C187.93 167.225 188.925 167.881 190.032 167.839C191.14 167.796 192.185 167.062 193.254 166.921C194.35 166.777 195.608 167.205 196.652 166.965C197.714 166.721 198.426 165.839 199.422 165.505C200.43 165.167 201.851 165.332 202.779 164.91C203.713 164.486 204.033 163.527 204.873 163.026C205.714 162.524 207.183 162.416 207.918 161.846C208.651 161.278 208.557 160.321 209.171 159.694C209.781 159.07 211.179 158.697 211.658 158.024C212.133 157.358 211.629 156.481 211.963 155.776C212.292 155.082 213.504 154.471 213.686 153.747C213.863 153.041 212.991 152.314 213.017 151.585Z" fill="white"/>
<path d="M190.38 148.286C189.149 149.964 187.234 150.904 186.104 150.387C184.975 149.869 185.057 148.089 186.289 146.412C187.521 144.734 189.435 143.794 190.565 144.311C191.695 144.829 191.612 146.609 190.38 148.286Z" fill="#E82933"/>
<path d="M195.952 147.532C196.19 149.401 195.305 151.077 193.975 151.274C192.644 151.472 191.373 150.117 191.134 148.249C190.896 146.38 191.782 144.704 193.112 144.507C194.442 144.309 195.714 145.664 195.952 147.532Z" fill="#E82933"/>
<path d="M199.947 144.214C201.835 145.179 202.745 146.732 201.979 147.682C201.214 148.633 199.063 148.622 197.175 147.657C195.288 146.693 194.378 145.14 195.143 144.189C195.909 143.238 198.059 143.249 199.947 144.214Z" fill="#E82933"/>
<path d="M186.535 146.232C184.756 147.545 182.626 147.964 181.777 147.167C180.928 146.37 181.683 144.658 183.462 143.345C185.241 142.031 187.371 141.612 188.22 142.409C189.068 143.206 188.314 144.918 186.535 146.232Z" fill="#E82933"/>
<path d="M185.219 154.209C187.873 154.012 190.076 154.561 190.141 155.434C190.206 156.308 188.108 157.175 185.454 157.372C182.8 157.569 180.597 157.02 180.532 156.146C180.467 155.273 182.565 154.405 185.219 154.209Z" fill="#E82933"/>
<path d="M181.089 151.596C183.103 150.51 185.551 150.128 186.557 150.743C187.564 151.358 186.748 152.736 184.734 153.822C182.721 154.908 180.273 155.29 179.266 154.675C178.26 154.061 179.076 152.682 181.089 151.596Z" fill="#E82933"/>
<path d="M174.928 151.146C174.935 149.636 176.191 148.35 177.735 148.275C179.278 148.2 180.524 149.363 180.517 150.874C180.511 152.384 179.254 153.67 177.711 153.745C176.168 153.82 174.922 152.657 174.928 151.146Z" fill="#E82933"/>
<path d="M185.103 157.332C187.658 157.616 189.387 158.548 188.965 159.413C188.544 160.279 186.131 160.75 183.576 160.465C181.021 160.181 179.292 159.249 179.713 158.384C180.135 157.518 182.548 157.047 185.103 157.332Z" fill="#E82933"/>
<path d="M196.113 155.146C193.466 155.154 191.216 155.873 191.088 156.754C190.959 157.635 193 158.344 195.647 158.336C198.294 158.329 200.544 157.609 200.672 156.729C200.801 155.848 198.759 155.139 196.113 155.146Z" fill="#E82933"/>
<path d="M200.443 152.208C198.503 151.275 196.076 151.08 195.022 151.774C193.968 152.468 194.687 153.788 196.627 154.721C198.567 155.655 200.994 155.85 202.048 155.156C203.102 154.462 202.384 153.142 200.443 152.208Z" fill="#E82933"/>
<path d="M206.654 151.283C206.757 149.769 205.591 148.576 204.049 148.62C202.507 148.663 201.173 149.926 201.07 151.44C200.966 152.954 202.133 154.146 203.675 154.103C205.217 154.06 206.551 152.797 206.654 151.283Z" fill="#E82933"/>
<path d="M196.002 158.269C193.42 158.751 191.618 159.819 191.978 160.654C192.338 161.489 194.723 161.776 197.306 161.294C199.889 160.812 201.69 159.744 201.33 158.909C200.97 158.074 198.585 157.787 196.002 158.269Z" fill="#E82933"/>
<path d="M194.996 110.894C195.025 110.087 195.312 109.703 195.172 108.933C195.029 108.144 195.482 106.782 195.172 106.04C194.857 105.285 193.737 105.053 193.264 104.355C192.785 103.648 191.262 103.352 190.634 102.711C190.002 102.067 190.184 100.996 189.415 100.427C188.644 99.8566 187.021 99.8615 186.127 99.3758C185.234 98.891 184.955 97.8534 183.952 97.4614C182.955 97.0717 181.363 97.377 180.271 97.0874C179.19 96.8009 178.471 95.8813 177.31 95.701C176.17 95.5237 174.738 96.107 173.532 96.0402C172.355 95.9749 171.253 95.2482 170.026 95.2954C168.799 95.3426 167.641 96.1562 166.456 96.3122C165.242 96.4722 163.848 95.9975 162.692 96.2631C161.515 96.5333 160.726 97.5109 159.622 97.8814C158.506 98.2559 156.931 98.0725 155.903 98.5401C154.869 99.0106 154.514 100.072 153.584 100.627C152.651 101.183 151.024 101.303 150.21 101.935C149.398 102.564 149.502 103.624 148.822 104.319C148.146 105.01 146.597 105.424 146.066 106.17C145.54 106.907 144.19 107.233 143.819 108.015C143.455 108.783 144.02 110.106 143.819 110.908C143.623 111.691 143.672 112.062 143.643 112.869C143.614 113.676 143.503 114.992 143.643 115.762C143.787 116.551 145.084 117.126 145.394 117.869C145.708 118.624 145.078 119.642 145.552 120.341C146.031 121.047 147.554 121.343 148.181 121.984C148.813 122.628 148.632 123.7 149.401 124.269C150.171 124.839 151.794 124.834 152.689 125.32C153.582 125.804 153.86 126.842 154.863 127.234C155.86 127.624 157.453 127.318 158.545 127.608C159.625 127.894 160.344 128.814 161.505 128.994C162.646 129.172 164.078 128.588 165.283 128.655C166.46 128.72 167.562 129.447 168.789 129.4C170.017 129.353 171.174 128.539 172.359 128.383C173.573 128.223 174.967 128.698 176.124 128.432C177.301 128.162 178.089 127.184 179.193 126.814C180.309 126.439 181.884 126.623 182.912 126.155C183.946 125.685 184.301 124.623 185.232 124.068C186.164 123.512 187.791 123.392 188.605 122.761C189.418 122.131 189.313 121.071 189.994 120.376C190.67 119.685 192.218 119.271 192.75 118.526C193.275 117.788 192.717 116.816 193.088 116.035C193.452 115.266 194.795 114.59 194.996 113.787C195.193 113.005 194.967 111.701 194.996 110.894Z" fill="#E82933" stroke="#263238" stroke-linecap="round" stroke-linejoin="round"/>
<path d="M194.255 108.499C194.284 107.692 195.312 106.81 195.172 106.04C195.029 105.251 193.731 104.676 193.422 103.934C193.107 103.178 193.737 102.16 193.264 101.461C192.785 100.755 191.262 100.459 190.634 99.8182C190.002 99.1737 190.184 98.1027 189.415 97.5337C188.644 96.9635 187.021 96.9684 186.127 96.4827C185.234 95.9979 184.955 94.9604 183.952 94.5683C182.955 94.1786 181.363 94.4839 180.271 94.1942C179.19 93.9078 178.471 92.9882 177.31 92.8079C176.17 92.6306 174.738 93.2139 173.532 93.147C172.355 93.0818 171.253 92.3551 170.026 92.4023C168.799 92.4495 167.641 93.2631 166.456 93.4191C165.242 93.5791 163.848 93.1045 162.692 93.37C161.515 93.6402 160.726 94.6178 159.622 94.9882C158.506 95.3628 156.931 95.1794 155.903 95.647C154.869 96.1174 154.514 97.1794 153.584 97.7342C152.651 98.2902 151.024 98.4103 150.21 99.0414C149.398 99.6713 149.502 100.731 148.822 101.426C148.146 102.117 146.597 102.531 146.066 103.277C145.54 104.014 146.098 104.986 145.728 105.768C145.363 106.536 144.02 107.213 143.819 108.015C143.623 108.797 144.589 109.603 144.56 110.41C144.531 111.217 143.503 112.099 143.643 112.869C143.787 113.658 145.084 114.233 145.394 114.975C145.708 115.731 145.078 116.749 145.552 117.448C146.031 118.154 147.554 118.45 148.181 119.091C148.813 119.735 148.632 120.806 149.401 121.375C150.171 121.946 151.794 121.941 152.689 122.426C153.582 122.911 153.86 123.949 154.863 124.341C155.86 124.73 157.453 124.425 158.545 124.715C159.625 125.001 160.344 125.921 161.505 126.101C162.646 126.278 164.078 125.695 165.283 125.762C166.46 125.827 167.562 126.554 168.789 126.507C170.017 126.46 171.174 125.646 172.359 125.49C173.573 125.33 174.967 125.805 176.124 125.539C177.301 125.269 178.089 124.291 179.193 123.921C180.309 123.546 181.884 123.73 182.912 123.262C183.946 122.792 184.301 121.73 185.232 121.175C186.164 120.619 187.791 120.499 188.605 119.868C189.418 119.238 189.313 118.178 189.994 117.483C190.67 116.792 192.218 116.378 192.75 115.633C193.275 114.895 192.717 113.923 193.088 113.142C193.452 112.373 194.795 111.696 194.996 110.894C195.193 110.112 194.226 109.306 194.255 108.499Z" fill="#E82933" stroke="#263238" stroke-linecap="round" stroke-linejoin="round"/>
<path opacity="0.69" d="M191.834 108.592C191.861 107.864 192.789 107.068 192.662 106.373C192.532 105.661 191.361 105.141 191.082 104.471C190.798 103.79 191.367 102.871 190.939 102.24C190.507 101.602 189.133 101.335 188.566 100.757C187.996 100.175 188.16 99.2086 187.466 98.6949C186.77 98.1805 185.305 98.1849 184.498 97.7464C183.692 97.3089 183.44 96.3725 182.535 96.0185C181.635 95.6668 180.198 95.9424 179.212 95.6809C178.237 95.4224 177.588 94.5924 176.541 94.4296C175.511 94.2696 174.219 94.7961 173.13 94.7358C172.068 94.6769 171.074 94.021 169.966 94.0637C168.858 94.1062 167.813 94.8405 166.744 94.9813C165.648 95.1257 164.39 94.6973 163.346 94.937C162.284 95.1809 161.572 96.0632 160.576 96.3977C159.568 96.7357 158.147 96.5701 157.219 96.9921C156.285 97.4167 155.965 98.3752 155.125 98.8761C154.284 99.3779 152.815 99.4864 152.08 100.056C151.347 100.624 151.441 101.581 150.827 102.208C150.217 102.832 148.819 103.206 148.34 103.878C147.865 104.544 148.369 105.421 148.035 106.127C147.706 106.82 146.494 107.431 146.312 108.155C146.135 108.862 147.007 109.589 146.981 110.317C146.955 111.045 146.027 111.842 146.153 112.536C146.283 113.248 147.454 113.768 147.733 114.438C148.017 115.119 147.449 116.038 147.876 116.669C148.308 117.307 149.683 117.574 150.249 118.152C150.82 118.734 150.656 119.7 151.35 120.214C152.045 120.729 153.51 120.724 154.318 121.163C155.123 121.6 155.375 122.537 156.28 122.89C157.18 123.242 158.617 122.967 159.603 123.228C160.578 123.487 161.227 124.317 162.275 124.479C163.304 124.639 164.597 124.113 165.685 124.173C166.747 124.232 167.742 124.888 168.85 124.846C169.957 124.803 171.002 124.068 172.072 123.928C173.167 123.783 174.425 124.212 175.469 123.972C176.532 123.728 177.243 122.846 178.24 122.512C179.247 122.173 180.669 122.339 181.597 121.917C182.53 121.492 182.85 120.534 183.69 120.033C184.532 119.531 186 119.423 186.735 118.853C187.468 118.285 187.374 117.328 187.988 116.701C188.598 116.077 189.996 115.704 190.476 115.031C190.95 114.365 190.446 113.488 190.781 112.782C191.109 112.089 192.321 111.478 192.503 110.754C192.681 110.048 191.808 109.32 191.834 108.592Z" fill="white"/>
<path d="M169.198 105.293C167.966 106.971 166.052 107.911 164.922 107.393C163.792 106.876 163.875 105.096 165.106 103.418C166.338 101.741 168.253 100.8 169.382 101.318C170.512 101.836 170.43 103.616 169.198 105.293Z" fill="#E82933"/>
<path d="M174.769 104.539C175.008 106.408 174.122 108.083 172.792 108.281C171.462 108.479 170.19 107.124 169.952 105.255C169.714 103.387 170.599 101.711 171.929 101.513C173.259 101.316 174.531 102.67 174.769 104.539Z" fill="#E82933"/>
<path d="M178.764 101.221C180.652 102.186 181.562 103.738 180.796 104.689C180.031 105.64 177.88 105.629 175.993 104.664C174.105 103.699 173.195 102.147 173.961 101.196C174.726 100.245 176.877 100.256 178.764 101.221Z" fill="#E82933"/>
<path d="M165.352 103.238C163.573 104.552 161.443 104.971 160.594 104.174C159.746 103.377 160.5 101.665 162.279 100.351C164.058 99.0375 166.189 98.6186 167.037 99.4158C167.886 100.213 167.131 101.924 165.352 103.238Z" fill="#E82933"/>
<path d="M164.036 111.215C166.69 111.019 168.894 111.567 168.959 112.441C169.024 113.314 166.925 114.182 164.271 114.379C161.618 114.575 159.414 114.027 159.349 113.153C159.284 112.28 161.383 111.412 164.036 111.215Z" fill="#E82933"/>
<path d="M159.907 108.603C161.92 107.517 164.368 107.135 165.375 107.75C166.381 108.364 165.565 109.743 163.552 110.829C161.538 111.915 159.09 112.297 158.084 111.682C157.077 111.068 157.893 109.689 159.907 108.603Z" fill="#E82933"/>
<path d="M153.746 108.153C153.752 106.643 155.009 105.357 156.552 105.282C158.095 105.206 159.341 106.37 159.335 107.88C159.328 109.391 158.072 110.676 156.529 110.752C154.985 110.827 153.739 109.664 153.746 108.153Z" fill="#E82933"/>
<path d="M163.92 114.338C166.475 114.623 168.204 115.555 167.783 116.42C167.361 117.285 164.948 117.756 162.393 117.472C159.838 117.188 158.109 116.256 158.53 115.39C158.952 114.525 161.365 114.054 163.92 114.338Z" fill="#E82933"/>
<path d="M174.93 112.153C172.283 112.16 170.033 112.88 169.905 113.761C169.776 114.642 171.818 115.35 174.464 115.343C177.111 115.336 179.361 114.616 179.489 113.735C179.618 112.854 177.577 112.146 174.93 112.153Z" fill="#E82933"/>
<path d="M179.261 109.215C177.321 108.281 174.893 108.087 173.839 108.781C172.786 109.475 173.504 110.794 175.444 111.728C177.384 112.662 179.811 112.857 180.865 112.163C181.919 111.469 181.201 110.149 179.261 109.215Z" fill="#E82933"/>
<path d="M185.471 108.29C185.575 106.776 184.408 105.583 182.866 105.626C181.324 105.67 179.99 106.932 179.887 108.447C179.784 109.961 180.95 111.153 182.492 111.11C184.034 111.067 185.368 109.804 185.471 108.29Z" fill="#E82933"/>
<path d="M174.82 115.276C172.237 115.758 170.435 116.826 170.795 117.661C171.155 118.496 173.541 118.782 176.123 118.301C178.706 117.819 180.508 116.751 180.148 115.916C179.788 115.08 177.402 114.794 174.82 115.276Z" fill="#E82933"/>
<path d="M282.431 120.087C282.943 119.463 283.405 119.331 283.76 118.634C284.123 117.919 285.309 117.11 285.512 116.332C285.719 115.54 284.968 114.677 285.015 113.835C285.062 112.982 284.03 111.824 283.919 110.934C283.806 110.039 284.6 109.297 284.333 108.378C284.065 107.458 282.771 106.478 282.354 105.55C281.937 104.623 282.344 103.629 281.784 102.709C281.226 101.795 279.775 101.073 279.081 100.181C278.395 99.2988 278.38 98.1313 277.566 97.2848C276.766 96.4526 275.273 96.0491 274.355 95.2654C273.458 94.5006 273.021 93.2548 272.016 92.5488C271.011 91.8429 269.597 91.7886 268.56 91.1949C267.497 90.5866 266.676 89.3646 265.595 88.875C264.495 88.377 263.276 88.6771 262.173 88.303C261.058 87.9246 259.916 86.8246 258.815 86.5738C257.707 86.3214 256.781 86.9514 255.705 86.829C254.626 86.7064 253.259 85.8162 252.229 85.825C251.201 85.8339 250.642 86.7405 249.68 86.8813C248.723 87.021 247.24 86.4124 246.366 86.6835C245.501 86.9515 244.229 86.3931 243.461 86.7905C242.706 87.181 242.354 88.5759 241.708 89.0922C241.078 89.5958 240.892 89.9214 240.38 90.5456C239.868 91.1698 238.982 92.15 238.627 92.8473C238.263 93.5619 238.947 94.8058 238.743 95.5838C238.536 96.3753 237.418 96.8035 237.372 97.6464C237.324 98.4986 238.357 99.6568 238.468 100.547C238.58 101.442 237.787 102.184 238.054 103.103C238.321 104.023 239.616 105.003 240.033 105.931C240.45 106.858 240.043 107.852 240.603 108.772C241.16 109.686 242.612 110.408 243.305 111.3C243.991 112.182 244.007 113.35 244.821 114.196C245.621 115.028 247.113 115.432 248.032 116.216C248.929 116.98 249.365 118.226 250.37 118.932C251.375 119.638 252.789 119.692 253.826 120.286C254.889 120.894 255.71 122.116 256.792 122.606C257.892 123.104 259.111 122.804 260.214 123.178C261.329 123.556 262.471 124.656 263.572 124.907C264.68 125.159 265.605 124.53 266.682 124.652C267.76 124.775 269.128 125.665 270.158 125.656C271.186 125.647 271.745 124.74 272.707 124.6C273.663 124.46 275.146 125.069 276.021 124.797C276.886 124.529 277.031 123.418 277.799 123.02C278.554 122.63 280.032 122.905 280.679 122.389C281.309 121.885 281.919 120.711 282.431 120.087Z" fill="#E82933" stroke="#263238" stroke-linecap="round" stroke-linejoin="round"/>
<path d="M283.293 117.733C283.805 117.108 285.157 117.029 285.512 116.332C285.876 115.617 285.192 114.374 285.396 113.596C285.603 112.804 286.721 112.376 286.768 111.533C286.815 110.681 285.783 109.522 285.671 108.632C285.559 107.737 286.353 106.995 286.086 106.076C285.818 105.156 284.524 104.176 284.106 103.248C283.69 102.321 284.097 101.327 283.536 100.408C282.979 99.4935 281.527 98.7716 280.834 97.8794C280.148 96.9971 280.133 95.8296 279.319 94.9831C278.519 94.1509 277.026 93.7474 276.107 92.9637C275.211 92.1989 274.774 90.9531 273.769 90.2471C272.764 89.5412 271.35 89.4869 270.313 88.8932C269.25 88.285 268.429 87.063 267.348 86.5734C266.248 86.0754 265.028 86.3754 263.926 86.0013C262.81 85.6229 261.669 84.5229 260.568 84.2721C259.46 84.0197 258.534 84.6497 257.458 84.5273C256.379 84.4047 255.012 83.5145 253.982 83.5234C252.954 83.5322 252.395 84.4388 251.432 84.5796C250.476 84.7194 248.993 84.1107 248.119 84.3818C247.254 84.6498 247.109 85.7614 246.341 86.1588C245.585 86.5493 244.107 86.2742 243.461 86.7905C242.83 87.2942 243.111 88.5207 242.599 89.1449C242.087 89.769 240.735 89.8483 240.38 90.5456C240.016 91.2602 240.7 92.5042 240.496 93.2821C240.289 94.0736 239.171 94.5018 239.124 95.3447C239.077 96.197 240.109 97.3551 240.221 98.2452C240.333 99.1406 239.539 99.8827 239.807 100.801C240.074 101.722 241.368 102.701 241.786 103.63C242.202 104.556 241.795 105.55 242.356 106.47C242.913 107.384 244.365 108.106 245.058 108.998C245.744 109.88 245.759 111.048 246.573 111.895C247.373 112.727 248.866 113.13 249.785 113.914C250.682 114.679 251.118 115.924 252.123 116.63C253.128 117.336 254.542 117.391 255.579 117.984C256.642 118.593 257.463 119.815 258.544 120.304C259.644 120.802 260.864 120.502 261.967 120.876C263.082 121.255 264.223 122.355 265.325 122.606C266.432 122.858 267.358 122.228 268.435 122.35C269.513 122.473 270.881 123.363 271.911 123.354C272.938 123.345 273.498 122.439 274.46 122.298C275.416 122.158 276.899 122.767 277.773 122.496C278.638 122.228 278.783 121.116 279.552 120.719C280.307 120.328 281.785 120.603 282.431 120.087C283.062 119.583 282.781 118.357 283.293 117.733Z" fill="#E82933" stroke="#263238" stroke-linecap="round" stroke-linejoin="round"/>
<path opacity="0.69" d="M281.311 116.34C281.773 115.777 282.993 115.705 283.314 115.076C283.642 114.431 283.025 113.308 283.209 112.606C283.396 111.892 284.405 111.505 284.447 110.744C284.49 109.975 283.558 108.93 283.457 108.126C283.356 107.318 284.072 106.648 283.831 105.819C283.59 104.989 282.422 104.105 282.045 103.267C281.669 102.43 282.036 101.533 281.53 100.703C281.027 99.8778 279.717 99.2263 279.091 98.421C278.472 97.6246 278.458 96.5709 277.724 95.8068C277.002 95.0558 275.654 94.6918 274.825 93.9842C274.016 93.294 273.622 92.1695 272.715 91.5323C271.808 90.8951 270.531 90.8462 269.595 90.3103C268.636 89.7612 267.895 88.6583 266.919 88.2165C265.926 87.7669 264.826 88.0379 263.83 87.7002C262.824 87.3586 261.793 86.3658 260.799 86.1394C259.799 85.9116 258.964 86.4801 257.992 86.3697C257.019 86.2591 255.785 85.4556 254.855 85.4636C253.927 85.4716 253.423 86.2899 252.554 86.4169C251.691 86.5431 250.353 85.9937 249.563 86.2384C248.783 86.4804 248.652 87.4836 247.958 87.8423C247.277 88.1948 245.942 87.9464 245.359 88.4124C244.79 88.867 245.044 89.9742 244.582 90.5375C244.119 91.1009 242.899 91.1724 242.578 91.8018C242.25 92.4468 242.867 93.5694 242.683 94.2716C242.496 94.986 241.487 95.3725 241.445 96.1333C241.403 96.9026 242.334 97.9478 242.435 98.7512C242.536 99.5594 241.82 100.229 242.061 101.058C242.302 101.889 243.471 102.773 243.847 103.611C244.223 104.447 243.856 105.345 244.362 106.175C244.865 107 246.175 107.651 246.801 108.457C247.42 109.253 247.434 110.307 248.168 111.071C248.891 111.822 250.238 112.186 251.067 112.893C251.876 113.584 252.27 114.708 253.177 115.345C254.084 115.983 255.361 116.031 256.297 116.567C257.256 117.116 257.997 118.219 258.973 118.661C259.966 119.111 261.067 118.84 262.062 119.178C263.068 119.519 264.099 120.512 265.093 120.738C266.093 120.966 266.928 120.397 267.9 120.508C268.873 120.618 270.107 121.422 271.037 121.414C271.965 121.406 272.47 120.588 273.338 120.461C274.201 120.334 275.54 120.884 276.329 120.639C277.109 120.397 277.24 119.394 277.934 119.035C278.615 118.683 279.95 118.931 280.533 118.465C281.102 118.011 280.848 116.903 281.311 116.34Z" fill="white"/>
<path d="M265.3 100.001C263.304 100.589 261.211 100.178 260.626 99.0813C260.041 97.9848 261.185 96.619 263.181 96.0306C265.178 95.4421 267.27 95.8539 267.856 96.9503C268.441 98.0467 267.297 99.4126 265.3 100.001Z" fill="#E82933"/>
<path d="M270.19 102.777C269.247 104.408 267.528 105.204 266.349 104.556C265.171 103.907 264.98 102.059 265.923 100.428C266.866 98.7966 268.585 98.0002 269.763 98.6487C270.941 99.2974 271.132 101.146 270.19 102.777Z" fill="#E82933"/>
<path d="M275.378 102.557C276.296 104.468 276.079 106.255 274.894 106.548C273.709 106.84 272.005 105.529 271.087 103.617C270.17 101.706 270.387 99.9194 271.572 99.6266C272.757 99.3338 274.461 100.646 275.378 102.557Z" fill="#E82933"/>
<path d="M263.486 96.0364C261.274 96.0038 259.326 95.0465 259.134 93.8981C258.942 92.7497 260.579 91.8453 262.79 91.8778C265.002 91.9104 266.95 92.8678 267.142 94.0162C267.334 95.1646 265.697 96.069 263.486 96.0364Z" fill="#E82933"/>
<path d="M257.606 101.585C259.836 103.037 261.257 104.808 260.78 105.543C260.302 106.277 258.107 105.696 255.877 104.244C253.646 102.793 252.225 101.022 252.703 100.287C253.181 99.553 255.376 100.134 257.606 101.585Z" fill="#E82933"/>
<path d="M255.903 97.005C258.163 97.361 260.342 98.5402 260.77 99.639C261.199 100.738 259.714 101.34 257.454 100.984C255.195 100.628 253.016 99.4491 252.587 98.3503C252.159 97.2514 253.644 96.6492 255.903 97.005Z" fill="#E82933"/>
<path d="M251.274 92.9146C252.195 91.7169 253.973 91.4552 255.247 92.3303C256.52 93.2054 256.806 94.8858 255.886 96.0836C254.966 97.2814 253.187 97.5429 251.914 96.6678C250.64 95.7927 250.354 94.1124 251.274 92.9146Z" fill="#E82933"/>
<path d="M255.621 104C257.482 105.774 258.293 107.563 257.433 107.996C256.574 108.429 254.368 107.342 252.508 105.567C250.648 103.793 249.837 102.004 250.696 101.571C251.556 101.138 253.761 102.226 255.621 104Z" fill="#E82933"/>
<path d="M265.704 108.931C263.594 107.334 261.369 106.543 260.733 107.166C260.097 107.789 261.292 109.59 263.401 111.187C265.511 112.785 267.737 113.576 268.373 112.953C269.009 112.33 267.814 110.529 265.704 108.931Z" fill="#E82933"/>
<path d="M270.93 109.218C269.952 107.3 268.139 105.674 266.88 105.588C265.621 105.501 265.393 106.986 266.371 108.905C267.349 110.823 269.162 112.449 270.421 112.535C271.68 112.622 271.908 111.137 270.93 109.218Z" fill="#E82933"/>
<path d="M276.432 112.245C277.431 111.102 277.226 109.447 275.973 108.547C274.719 107.647 272.893 107.844 271.894 108.986C270.894 110.128 271.1 111.783 272.353 112.683C273.606 113.583 275.432 113.387 276.432 112.245Z" fill="#E82933"/>
<path d="M263.725 111.349C261.378 110.168 259.298 109.925 259.078 110.808C258.858 111.691 260.583 113.364 262.929 114.545C265.276 115.726 267.357 115.969 267.576 115.086C267.796 114.204 266.071 112.53 263.725 111.349Z" fill="#E82933"/>
<path d="M240.714 22.5629C208.312 9.06399 161.734 18.4727 136.769 36.6246C120.778 48.2513 104.046 70.507 108.815 91.5374C110.362 98.3594 112.537 105.098 122.078 109.578C131.619 114.058 161.793 115.152 187.616 112.353C213.438 109.554 251.818 95.5002 267.39 78.0934C277.364 66.9441 272.373 50.7413 264.231 40.1393C258.117 32.1781 249.997 26.4303 240.714 22.5629Z" fill="#E82933" stroke="#263238" stroke-miterlimit="10"/>
<path d="M214.657 40.9616C211.982 41.6109 211.547 39.5789 211.547 39.5789C211.547 39.5789 211.228 37.5186 213.787 36.8976C216.229 36.3047 216.897 38.2803 216.897 38.2803C216.897 38.2803 217.216 40.3405 214.657 40.9616Z" fill="white"/>
<path d="M237.797 45.2493C235.04 45.1038 235.052 43.0303 235.052 43.0303C235.052 43.0303 235.184 40.9631 237.821 41.1023C240.338 41.2352 240.566 43.3213 240.566 43.3213C240.566 43.3213 240.434 45.3885 237.797 45.2493Z" fill="white"/>
<path d="M218.339 65.1938C215.582 65.0482 215.594 62.9747 215.594 62.9747C215.594 62.9747 215.726 60.9076 218.363 61.0468C220.88 61.1796 221.108 63.2658 221.108 63.2658C221.108 63.2658 220.976 65.333 218.339 65.1938Z" fill="white"/>
<path d="M132.092 84.1563C129.335 84.0108 129.347 81.9373 129.347 81.9373C129.347 81.9373 129.479 79.8702 132.116 80.0094C134.633 80.1422 134.861 82.2282 134.861 82.2282C134.861 82.2282 134.729 84.2954 132.092 84.1563Z" fill="white"/>
<path d="M189.089 68.4493C186.362 68.7932 186.098 66.7297 186.098 66.7297C186.098 66.7297 185.953 64.6512 188.561 64.3223C191.051 64.0084 191.552 66.042 191.552 66.042C191.552 66.042 191.698 68.1205 189.089 68.4493Z" fill="white"/>
<path d="M242.882 61.5038C240.194 62.0906 239.794 60.0506 239.794 60.0506C239.794 60.0506 239.51 57.985 242.081 57.4237C244.535 56.8879 245.169 58.877 245.169 58.877C245.169 58.877 245.453 60.9426 242.882 61.5038Z" fill="white"/>
<path d="M227.697 84.0918C225.01 84.6786 224.609 82.6385 224.609 82.6385C224.609 82.6385 224.326 80.5729 226.897 80.0117C229.351 79.4759 229.985 81.4649 229.985 81.4649C229.985 81.4649 230.268 83.5305 227.697 84.0918Z" fill="white"/>
<path d="M202.199 85.3884C199.512 85.9751 199.111 83.9351 199.111 83.9351C199.111 83.9351 198.828 81.8695 201.399 81.3082C203.853 80.7725 204.487 82.7615 204.487 82.7615C204.487 82.7615 204.77 84.827 202.199 85.3884Z" fill="white"/>
<path d="M165.657 89.6157C162.969 90.2025 162.569 88.1625 162.569 88.1625C162.569 88.1625 162.285 86.0969 164.856 85.5356C167.31 84.9998 167.944 86.9889 167.944 86.9889C167.944 86.9889 168.227 89.0545 165.657 89.6157Z" fill="white"/>
<path d="M226.603 31.2411C223.847 31.1348 223.836 29.0602 223.836 29.0602C223.836 29.0602 223.946 26.9904 226.583 27.0921C229.1 27.1892 229.35 29.2729 229.35 29.2729C229.35 29.2729 229.24 31.3429 226.603 31.2411Z" fill="white"/>
<path d="M178.279 34.913C174.986 35.8909 174.523 34.0665 174.523 34.0665C174.523 34.0665 174.202 32.1995 177.352 31.2641C180.359 30.3711 181.108 32.1105 181.108 32.1105C181.108 32.1105 181.429 33.9775 178.279 34.913Z" fill="white"/>
<path d="M156.621 52.3489C153.977 53.1339 153.462 51.1067 153.462 51.1067C153.462 51.1067 153.062 49.0454 155.59 48.2946C158.004 47.5778 158.749 49.5368 158.749 49.5368C158.749 49.5368 159.149 51.598 156.621 52.3489Z" fill="white"/>
<path d="M153.047 40.0638C150.404 40.8488 150.148 39.843 150.148 39.843C150.148 39.843 150.008 38.8031 152.536 38.0522C154.949 37.3356 155.435 38.273 155.435 38.273C155.435 38.273 155.576 39.313 153.047 40.0638Z" fill="white"/>
<path d="M138.623 45.5555C136.176 46.911 135.762 45.972 135.762 45.972C135.762 45.972 135.454 44.9741 137.794 43.6775C140.028 42.4398 140.655 43.2609 140.655 43.2609C140.655 43.2609 140.963 44.2589 138.623 45.5555Z" fill="white"/>
<path d="M114.821 85.6345C114.168 88.3541 113.196 88.0253 113.196 88.0253C113.196 88.0253 112.252 87.5782 112.877 84.9768C113.473 82.4936 114.502 82.5859 114.502 82.5859C114.502 82.5859 115.446 83.033 114.821 85.6345Z" fill="white"/>
<path d="M163.71 31.6297C161.074 32.4457 160.81 31.4425 160.81 31.4425C160.81 31.4425 160.66 30.404 163.181 29.6234C165.587 28.8783 166.08 29.8105 166.08 29.8105C166.08 29.8105 166.23 30.849 163.71 31.6297Z" fill="white"/>
<path d="M193.95 24.3237C191.249 24.8388 191.069 23.8147 191.069 23.8147C191.069 23.8147 191.007 22.7681 193.59 22.2754C196.057 21.8051 196.471 22.7845 196.471 22.7845C196.471 22.7845 196.534 23.831 193.95 24.3237Z" fill="white"/>
<path d="M241.406 28.121C238.718 27.2952 238.917 26.2929 238.917 26.2929C238.917 26.2929 239.233 25.3265 241.805 26.1165C244.259 26.8705 244.294 27.9446 244.294 27.9446C244.294 27.9446 243.978 28.911 241.406 28.121Z" fill="white"/>
<path d="M259.714 44.7775C257.655 42.8618 258.271 42.0468 258.271 42.0468C258.271 42.0468 258.977 41.3149 260.946 43.1473C262.827 44.8965 262.389 45.8781 262.389 45.8781C262.389 45.8781 261.683 46.6098 259.714 44.7775Z" fill="white"/>
<path d="M122.821 61.346C120.749 63.3498 120.156 62.5435 120.156 62.5435C120.156 62.5435 119.653 61.6502 121.635 59.7334C123.528 57.9038 124.301 58.5358 124.301 58.5358C124.301 58.5358 124.804 59.4293 122.821 61.346Z" fill="white"/>
<path d="M211.433 30.2522C208.759 30.9016 208.323 28.8696 208.323 28.8696C208.323 28.8696 208.004 26.8094 210.563 26.1883C213.005 25.5954 213.673 27.571 213.673 27.571C213.673 27.571 213.992 29.6312 211.433 30.2522Z" fill="white"/>
<path d="M202.793 54.1351C200.118 54.7844 199.683 52.7524 199.683 52.7524C199.683 52.7524 199.364 50.6921 201.922 50.0711C204.365 49.4782 205.032 51.4538 205.032 51.4538C205.032 51.4538 205.351 53.5141 202.793 54.1351Z" fill="white"/>
<path d="M195.63 39.9512C192.955 40.6005 192.52 38.5685 192.52 38.5685C192.52 38.5685 192.201 36.5082 194.76 35.8872C197.202 35.2944 197.87 37.2699 197.87 37.2699C197.87 37.2699 198.189 39.3301 195.63 39.9512Z" fill="white"/>
<path d="M161.528 67.7703C158.853 68.4196 158.418 66.3875 158.418 66.3875C158.418 66.3875 158.099 64.3273 160.658 63.7062C163.1 63.1134 163.768 65.089 163.768 65.089C163.768 65.089 164.087 67.1493 161.528 67.7703Z" fill="white"/>
<path d="M180.923 50.4027C178.248 51.0521 177.813 49.0201 177.813 49.0201C177.813 49.0201 177.494 46.9598 180.052 46.3388C182.495 45.7459 183.162 47.7214 183.162 47.7214C183.162 47.7214 183.481 49.7817 180.923 50.4027Z" fill="white"/>
<path d="M262.845 69.6313C254.347 80.2201 246.293 83.9943 221.955 87.2344C197.617 90.4745 178.441 95.2791 161.419 99.3465C144.397 103.414 142.834 101.821 125.076 96.9793C111.675 93.3257 109.241 92.0879 108.852 91.7002C110.398 98.4664 112.613 105.133 122.078 109.578C131.619 114.058 161.793 115.152 187.616 112.353C213.438 109.554 251.818 95.5002 267.39 78.0934C272.903 71.9307 273.839 64.2246 272.202 56.7733C270.102 60.4029 267.054 64.387 262.845 69.6313Z" fill="white"/>
<path d="M240.714 22.5629C208.312 9.06399 161.734 18.4727 136.769 36.6246C120.778 48.2513 104.046 70.507 108.815 91.5374C110.362 98.3594 112.537 105.098 122.078 109.578C131.619 114.058 161.793 115.152 187.616 112.353C213.438 109.554 251.818 95.5002 267.39 78.0934C277.364 66.9441 272.373 50.7413 264.231 40.1393C258.117 32.1781 249.997 26.4303 240.714 22.5629Z" stroke="#263238" stroke-miterlimit="10"/>
</svg>
