<svg width="69" height="23" viewBox="0 0 69 23" fill="none" xmlns="http://www.w3.org/2000/svg">
<g clip-path="url(#clip0_7_40)">
<path fill-rule="evenodd" clip-rule="evenodd" d="M13.1583 11.2087C13.4527 11.1454 13.5621 11.1863 13.586 11.1978C13.5959 11.2183 13.6182 11.2857 13.6027 11.4445C13.5803 11.6752 13.4834 12.0015 13.2857 12.41C12.8933 13.221 12.1695 14.221 11.1953 15.1953C10.221 16.1695 9.22107 16.8933 8.41003 17.2857C8.00153 17.4834 7.67517 17.5802 7.44453 17.6027C7.2857 17.6182 7.21837 17.5958 7.1978 17.586C7.1863 17.5621 7.14543 17.4527 7.20873 17.1583C7.2854 16.8018 7.48963 16.3219 7.8346 15.7606C8.2525 15.0806 8.8499 14.3248 9.58737 13.5873C10.3248 12.8499 11.0806 12.2525 11.7606 11.8346C12.3219 11.4896 12.8018 11.2854 13.1583 11.2087ZM1.47063 13.7468L6.25323 18.5294C6.6271 18.9032 7.13423 18.9726 7.5739 18.9298C8.0195 18.8863 8.50493 18.721 8.99077 18.486C9.9684 18.0129 11.0873 17.1889 12.1381 16.1381C13.1889 15.0873 14.0129 13.9684 14.486 12.9908C14.721 12.5049 14.8863 12.0195 14.9298 11.5739C14.9726 11.1342 14.9032 10.6271 14.5294 10.2532L9.74677 5.47062C9.28423 5.00809 8.6255 5.00858 8.09537 5.12259C7.53603 5.24288 6.91113 5.52806 6.27987 5.916C5.49927 6.39572 4.6627 7.06118 3.86193 7.86193C3.06118 8.66267 2.39572 9.49927 1.91601 10.2799C1.52807 10.9111 1.24288 11.536 1.12259 12.0954C1.00858 12.6255 1.0081 13.2842 1.47063 13.7468Z" fill="#E82933"/>
</g>
<path d="M33.902 19.216C32.918 19.216 32 19.042 31.148 18.694C30.296 18.346 29.552 17.86 28.916 17.236C28.28 16.612 27.782 15.88 27.422 15.04C27.074 14.188 26.9 13.27 26.9 12.286C26.9 11.29 27.074 10.372 27.422 9.532C27.77 8.692 28.262 7.96 28.898 7.336C29.534 6.712 30.278 6.232 31.13 5.896C31.982 5.548 32.906 5.374 33.902 5.374C34.898 5.374 35.822 5.548 36.674 5.896C37.526 6.244 38.27 6.73 38.906 7.354C39.542 7.966 40.034 8.692 40.382 9.532C40.742 10.372 40.922 11.29 40.922 12.286C40.922 13.27 40.742 14.188 40.382 15.04C40.022 15.88 39.524 16.612 38.888 17.236C38.252 17.86 37.508 18.346 36.656 18.694C35.816 19.042 34.898 19.216 33.902 19.216ZM33.902 16.984C34.562 16.984 35.168 16.87 35.72 16.642C36.272 16.402 36.752 16.072 37.16 15.652C37.58 15.232 37.898 14.734 38.114 14.158C38.342 13.582 38.456 12.958 38.456 12.286C38.456 11.614 38.342 10.996 38.114 10.432C37.898 9.856 37.58 9.358 37.16 8.938C36.752 8.506 36.272 8.176 35.72 7.948C35.168 7.72 34.562 7.606 33.902 7.606C33.254 7.606 32.654 7.72 32.102 7.948C31.55 8.176 31.064 8.506 30.644 8.938C30.236 9.358 29.918 9.856 29.69 10.432C29.462 10.996 29.348 11.614 29.348 12.286C29.348 12.958 29.462 13.582 29.69 14.158C29.918 14.734 30.236 15.232 30.644 15.652C31.064 16.072 31.55 16.402 32.102 16.642C32.654 16.87 33.254 16.984 33.902 16.984ZM47.3647 19.108C46.2607 19.108 45.4027 18.808 44.7907 18.208C44.1907 17.596 43.8907 16.738 43.8907 15.634V11.314H42.1987V9.208H42.3787C42.8587 9.208 43.2307 9.082 43.4947 8.83C43.7587 8.578 43.8907 8.212 43.8907 7.732V6.976H46.2487V9.208H48.4987V11.314H46.2487V15.508C46.2487 15.832 46.3027 16.108 46.4107 16.336C46.5307 16.564 46.7107 16.738 46.9507 16.858C47.2027 16.978 47.5207 17.038 47.9047 17.038C47.9887 17.038 48.0847 17.032 48.1927 17.02C48.3127 17.008 48.4267 16.996 48.5347 16.984V19C48.3667 19.024 48.1747 19.048 47.9587 19.072C47.7427 19.096 47.5447 19.108 47.3647 19.108ZM54.0623 19.216C53.0183 19.216 52.1063 18.97 51.3263 18.478C50.5583 17.974 50.0303 17.296 49.7423 16.444L51.5063 15.598C51.7583 16.15 52.1063 16.582 52.5503 16.894C53.0063 17.206 53.5103 17.362 54.0623 17.362C54.4943 17.362 54.8363 17.266 55.0883 17.074C55.3403 16.882 55.4663 16.63 55.4663 16.318C55.4663 16.126 55.4123 15.97 55.3043 15.85C55.2083 15.718 55.0703 15.61 54.8903 15.526C54.7223 15.43 54.5363 15.352 54.3323 15.292L52.7303 14.842C51.9023 14.602 51.2723 14.236 50.8403 13.744C50.4203 13.252 50.2103 12.67 50.2103 11.998C50.2103 11.398 50.3603 10.876 50.6603 10.432C50.9723 9.976 51.3983 9.622 51.9383 9.37C52.4903 9.118 53.1203 8.992 53.8283 8.992C54.7523 8.992 55.5683 9.214 56.2763 9.658C56.9843 10.102 57.4883 10.726 57.7883 11.53L55.9883 12.376C55.8203 11.932 55.5383 11.578 55.1423 11.314C54.7463 11.05 54.3023 10.918 53.8103 10.918C53.4143 10.918 53.1023 11.008 52.8743 11.188C52.6463 11.368 52.5323 11.602 52.5323 11.89C52.5323 12.07 52.5803 12.226 52.6763 12.358C52.7723 12.49 52.9043 12.598 53.0723 12.682C53.2523 12.766 53.4563 12.844 53.6843 12.916L55.2503 13.384C56.0543 13.624 56.6723 13.984 57.1043 14.464C57.5483 14.944 57.7703 15.532 57.7703 16.228C57.7703 16.816 57.6143 17.338 57.3023 17.794C56.9903 18.238 56.5583 18.586 56.0063 18.838C55.4543 19.09 54.8063 19.216 54.0623 19.216ZM60.5946 22.96C60.3306 22.96 60.0726 22.936 59.8206 22.888C59.5686 22.852 59.3406 22.78 59.1366 22.672V20.71C59.2926 20.746 59.4786 20.782 59.6946 20.818C59.9226 20.854 60.1326 20.872 60.3246 20.872C60.8646 20.872 61.2546 20.746 61.4946 20.494C61.7466 20.254 61.9686 19.93 62.1606 19.522L62.8086 18.01L62.7726 19.99L58.5066 9.208H61.0446L64.0326 17.164H63.1326L66.1026 9.208H68.6586L64.3926 19.99C64.1406 20.614 63.8346 21.148 63.4746 21.592C63.1146 22.036 62.6946 22.372 62.2146 22.6C61.7466 22.84 61.2066 22.96 60.5946 22.96Z" fill="#E82933"/>
<defs>
<clipPath id="clip0_7_40">
<rect width="16" height="16" fill="white" transform="translate(0 4)"/>
</clipPath>
</defs>
</svg>
